mtllib model_53.mtl
o model_53
v 0.023134784772992134 -0.03227199614048004 -0.029539819806814194 
v 0.019928712397813797 -0.0018300489755347371 -0.027479756623506546 
v 0.011476344428956509 -0.03162429481744766 0.03277711570262909 
v 0.009727577678859234 -0.0011823480017483234 0.02505187690258026 
v 0.016431180760264397 0.024725692346692085 -0.02541969157755375 
v 0.006521507166326046 0.04739522561430931 0.00805634818971157 
v 0.013808031566441059 0.0383274145424366 -0.01975451596081257 
v 0.010019038803875446 0.04480442404747009 -0.004819051828235388 
v -0.008925925940275192 0.04739522561430931 0.012691492214798927 
v 0.006521507166326046 0.04739522561430931 0.00805634818971157 
v -0.013006379827857018 -0.0011823480017483234 0.03020203672349453 
v 0.009727577678859234 -0.0011823480017483234 0.02505187690258026 
v -0.01562952809035778 -0.03227199614048004 0.03844229131937027 
v 0.011476344428956509 -0.03162429481744766 0.03277711570262909 
v 0.017597025260329247 -0.03421510010957718 -0.0321149006485939 
v 0.007104428950697184 -0.03486280143260956 0.028656987473368645 
v 0.023134784772992134 -0.03227199614048004 -0.029539819806814194 
v 0.011476344428956509 -0.03162429481744766 0.03277711570262909 
v -0.018835600465536118 -0.03486280143260956 0.03329213336110115 
v -0.01562952809035778 -0.03227199614048004 0.03844229131937027 
v 0.023134784772992134 -0.03227199614048004 -0.029539819806814194 
v 0.017597025260329247 -0.03421510010957718 -0.0321149006485939 
v 0.019928712397813797 -0.0018300489755347371 -0.027479756623506546 
v 0.014390953816473484 -0.0024777499493211508 -0.030569851398468018 
v 0.016431180760264397 0.024725692346692085 -0.02541969157755375 
v 0.010893422178924084 0.024077991023659706 -0.02850978821516037 
v 0.013808031566441059 0.0383274145424366 -0.01975451596081257 
v 0.0076873512007296085 0.0383274145424366 -0.022329596802592278 
v 0.010019038803875446 0.04480442404747009 -0.004819051828235388 
v 0.0038983579725027084 0.04545212537050247 -0.006364100147038698 
v 0.006521507166326046 0.04739522561430931 0.00805634818971157 
v 0.0021495919208973646 0.04739522561430931 0.0034212039317935705 
v -0.008925925940275192 0.04739522561430931 0.012691492214798927 
v -0.012131997384130955 0.04674752429127693 0.00702631613239646 
v -0.018835600465536118 -0.03486280143260956 0.03329213336110115 
v -0.01562952809035778 -0.03227199614048004 0.03844229131937027 
v -0.016212450340390205 -0.0024777499493211508 0.02505187690258026 
v -0.013006379827857018 -0.0011823480017483234 0.03020203672349453 
v -0.016212450340390205 -0.0024777499493211508 0.02505187690258026 
v -0.012131997384130955 0.04674752429127693 0.00702631613239646 
v -0.008925925940275192 0.04739522561430931 0.012691492214798927 
vn 0.9786353707313538 0.09046094119548798 0.18463370203971863 
vn 0.9763050079345703 0.1055246889591217 0.18892620503902435 
vn 0.9786353707313538 0.09046094119548798 0.18463370203971863 
vn 0.9763050079345703 0.1055246889591217 0.18892620503902435 
vn 0.9737379550933838 0.12042580544948578 0.19321508705615997 
vn 0.9737379550933838 0.12042580544948578 0.19321508705615997 
vn 0.9737379550933838 0.12042580544948578 0.19321508705615997 
vn 0.9737379550933838 0.12042580544948578 0.19321508705615997 
vn 0.24043835699558258 0.3187595307826996 0.916832447052002 
vn 0.24043835699558258 0.3187595307826996 0.916832447052002 
vn 0.22286859154701233 0.27601754665374756 0.9349566102027893 
vn 0.2228950411081314 0.2812235355377197 0.933397650718689 
vn 0.2039136439561844 0.2436634749174118 0.9481810927391052 
vn 0.2039136439561844 0.2436634749174118 0.9481810927391052 
vn 0.0377483032643795 -0.9992275834083557 0.010923261754214764 
vn 0.1149214580655098 -0.9850230813026428 0.12854042649269104 
vn 0.3929956555366516 -0.916714608669281 0.07203252613544464 
vn 0.2552908957004547 -0.9272539019584656 0.27391019463539124 
vn 0.026431526988744736 -0.9973573088645935 0.06767380982637405 
vn 0.09407956153154373 -0.8806793689727783 0.4642767012119293 
vn 0.41752558946609497 0.09003590047359467 -0.9041935205459595 
vn 0.06571978330612183 0.043056242167949677 -0.9969087839126587 
vn 0.412158727645874 0.11206809431314468 -0.9041935205459595 
vn 0.03911028429865837 0.05253422632813454 -0.9978529810905457 
vn 0.3896229863166809 0.2830776870250702 -0.8763908743858337 
vn 0.0723581314086914 0.21780891716480255 -0.9733054637908936 
vn 0.3035404682159424 0.7192337512969971 -0.6249527335166931 
vn 0.00943888258188963 0.7078158259391785 -0.7063339352607727 
vn 0.17834913730621338 0.9486433863639832 -0.2612801790237427 
vn -0.13367865979671478 0.9394093155860901 -0.31565824151039124 
vn 0.06601781398057938 0.9916040897369385 -0.1111890971660614 
vn -0.052826281636953354 0.9743234515190125 -0.21886809170246124 
vn -0.030177012085914612 0.9986827969551086 -0.04149730131030083 
vn -0.10740137100219727 0.9399622678756714 -0.3239381015300751 
vn -0.9560881853103638 0.12412768602371216 0.26549527049064636 
vn -0.8769893646240234 0.1910407543182373 0.4409002661705017 
vn -0.9557286500930786 0.1353345811367035 0.2612801790237427 
vn -0.8708309531211853 0.209261953830719 0.44481781125068665 
vn -0.9557286500930786 0.1353345811367035 0.2612801790237427 
vn -0.9411704540252686 0.1651027649641037 0.2948545813560486 
vn -0.8652660250663757 0.2311965376138687 0.44481781125068665 
vt 0.925715982913971 0.7853220105171204 
vt 0.925715982913971 0.7853220105171204 
vt 0.925715982913971 0.7853220105171204 
vt 0.925715982913971 0.7853220105171204 
vt 0.925715982913971 0.7853220105171204 
vt 0.925715982913971 0.7853220105171204 
vt 0.925715982913971 0.7853220105171204 
vt 0.925715982913971 0.7853220105171204 
vt 0.925715982913971 0.7853220105171204 
vt 0.925715982913971 0.7853220105171204 
vt 0.925715982913971 0.7853220105171204 
vt 0.925715982913971 0.7853220105171204 
vt 0.925715982913971 0.7853220105171204 
vt 0.925715982913971 0.7853220105171204 
vt 0.925715982913971 0.7853220105171204 
vt 0.925715982913971 0.7853220105171204 
vt 0.925715982913971 0.7853220105171204 
vt 0.925715982913971 0.7853220105171204 
vt 0.925715982913971 0.7853220105171204 
vt 0.925715982913971 0.7853220105171204 
vt 0.925715982913971 0.7853220105171204 
vt 0.925715982913971 0.7853220105171204 
vt 0.925715982913971 0.7853220105171204 
vt 0.925715982913971 0.7853220105171204 
vt 0.925715982913971 0.7853220105171204 
vt 0.925715982913971 0.7853220105171204 
vt 0.925715982913971 0.7853220105171204 
vt 0.925715982913971 0.7853220105171204 
vt 0.925715982913971 0.7853220105171204 
vt 0.925715982913971 0.7853220105171204 
vt 0.925715982913971 0.7853220105171204 
vt 0.925715982913971 0.7853220105171204 
vt 0.925715982913971 0.7853220105171204 
vt 0.925715982913971 0.7853220105171204 
vt 0.925715982913971 0.7853220105171204 
vt 0.925715982913971 0.7853220105171204 
vt 0.925715982913971 0.7853220105171204 
vt 0.925715982913971 0.7853220105171204 
vt 0.925715982913971 0.7853220105171204 
vt 0.925715982913971 0.7853220105171204 
vt 0.925715982913971 0.7853220105171204 
s on 
f 1/1/1 2/2/2 3/3/3 
f 2/2/2 2/2/2 3/3/3 
f 3/3/3 2/2/2 4/4/4 
f 2/2/2 5/5/5 4/4/4 
f 4/4/4 5/5/5 6/6/6 
f 5/5/5 7/7/7 6/6/6 
f 6/6/6 7/7/7 8/8/8 
f 7/7/7 8/8/8 8/8/8 
f 8/8/8 8/8/8 9/9/9 
f 8/8/8 9/9/9 9/9/9 
f 9/9/9 9/9/9 10/10/10 
f 9/9/9 11/11/11 10/10/10 
f 10/10/10 11/11/11 12/12/12 
f 11/11/11 13/13/13 12/12/12 
f 12/12/12 13/13/13 14/14/14 
f 13/13/13 14/14/14 14/14/14 
f 14/14/14 14/14/14 15/15/15 
f 14/14/14 15/15/15 15/15/15 
f 15/15/15 15/15/15 16/16/16 
f 15/15/15 17/17/17 16/16/16 
f 16/16/16 17/17/17 16/16/16 
f 17/17/17 18/18/18 16/16/16 
f 16/16/16 18/18/18 19/19/19 
f 18/18/18 20/20/20 19/19/19 
f 19/19/19 20/20/20 20/20/20 
f 20/20/20 21/21/21 20/20/20 
f 20/20/20 21/21/21 21/21/21 
f 21/21/21 22/22/22 21/21/21 
f 21/21/21 22/22/22 23/23/23 
f 22/22/22 24/24/24 23/23/23 
f 23/23/23 24/24/24 25/25/25 
f 24/24/24 26/26/26 25/25/25 
f 25/25/25 26/26/26 27/27/27 
f 26/26/26 28/28/28 27/27/27 
f 27/27/27 28/28/28 29/29/29 
f 28/28/28 30/30/30 29/29/29 
f 29/29/29 30/30/30 31/31/31 
f 30/30/30 32/32/32 31/31/31 
f 31/31/31 32/32/32 33/33/33 
f 32/32/32 34/34/34 33/33/33 
f 33/33/33 34/34/34 34/34/34 
f 34/34/34 35/35/35 34/34/34 
f 34/34/34 35/35/35 35/35/35 
f 35/35/35 36/36/36 35/35/35 
f 35/35/35 36/36/36 37/37/37 
f 36/36/36 38/38/38 37/37/37 
f 37/37/37 38/38/38 38/38/38 
f 38/38/38 39/39/39 38/38/38 
f 38/38/38 39/39/39 39/39/39 
f 39/39/39 38/38/38 39/39/39 
f 39/39/39 38/38/38 40/40/40 
f 38/38/38 41/41/41 40/40/40 

