mtllib model_54.mtl
o model_54
v 0.003259760094806552 -0.37606799602508545 -0.30144500732421875 
v 0.003259760094806552 -0.24425791203975677 -0.24285994470119476 
v 0.14665773510932922 -0.24425791203975677 -0.23969317972660065 
v 0.13362155854701996 -0.1124478206038475 -0.17002445459365845 
v 0.25746527314186096 -0.1152522936463356 -0.16527432203292847 
v 0.23791100084781647 -0.02831372059881687 -0.10668925940990448 
v 0.15317583084106445 -0.37606799602508545 -0.29827824234962463 
v 0.2835376262664795 -0.24706238508224487 -0.23494304716587067 
v 0.3030919134616852 -0.37606799602508545 -0.29352810978889465 
v 0.41389942169189453 -0.37606799602508545 -0.2871945798397064 
v 0.387827068567276 -0.25267133116722107 -0.22702613472938538 
v 0.35523661971092224 -0.1264701634645462 -0.15894080698490143 
v 0.3291642665863037 -0.04233606904745102 -0.10035573691129684 
v 0.12710346281528473 -0.022704780101776123 -0.11143939942121506 
v 0.003259760094806552 -0.1096433475613594 -0.17319121956825256 
v 0.003259760094806552 -0.019900310784578323 -0.11460615694522858 
v 0.003259760094806552 -0.019900310784578323 -0.11460615694522858 
v 0.003259760094806552 -0.1096433475613594 -0.17319121956825256 
v -0.1271020472049713 -0.022704780101776123 -0.11143939942121506 
v -0.13362012803554535 -0.1124478206038475 -0.17002445459365845 
v -0.23790957033634186 -0.02831372059881687 -0.10668925940990448 
v 0.003259760094806552 -0.24425791203975677 -0.24285994470119476 
v -0.14665630459785461 -0.24425791203975677 -0.23969317972660065 
v 0.003259760094806552 -0.37606799602508545 -0.30144500732421875 
v -0.15317440032958984 -0.37606799602508545 -0.29827824234962463 
v -0.2835361957550049 -0.24706238508224487 -0.23494304716587067 
v -0.30309048295021057 -0.37606799602508545 -0.29352810978889465 
v -0.4138979911804199 -0.37606799602508545 -0.2871945798397064 
v -0.3878256380558014 -0.25267133116722107 -0.22702613472938538 
v -0.25746384263038635 -0.1152522936463356 -0.16527432203292847 
v -0.35523518919944763 -0.1264701634645462 -0.15894080698490143 
v -0.3291628360748291 -0.04233606904745102 -0.10035573691129684 
vn 0.0037777165416628122 0.4112381339073181 -0.9115201234817505 
vn 0.003775141667574644 0.4349917769432068 -0.9004265069961548 
vn 0.032084252685308456 0.43776413798332214 -0.8985171914100647 
vn 0.041567977517843246 0.506473183631897 -0.8612531423568726 
vn 0.08468016982078552 0.5237767696380615 -0.8476362228393555 
vn 0.09412878006696701 0.562873363494873 -0.8211658596992493 
vn 0.024563133716583252 0.4145071804523468 -0.9097144603729248 
vn 0.0621829628944397 0.45422524213790894 -0.888714075088501 
vn 0.05090666934847832 0.4240785241127014 -0.9041935205459595 
vn 0.06959778815507889 0.4333854913711548 -0.8985171914100647 
vn 0.08276677131652832 0.4548719823360443 -0.8867024183273315 
vn 0.11073943972587585 0.5264436602592468 -0.8429672718048096 
vn 0.13304531574249268 0.580483078956604 -0.8033295273780823 
vn 0.04533342272043228 0.5470930337905884 -0.8358433246612549 
vn -0.0018909800564870238 0.504404604434967 -0.8634653687477112 
vn 0.0018908836646005511 0.5453073978424072 -0.838234007358551 
vn 0.0018908836646005511 0.5453073978424072 -0.838234007358551 
vn -0.0018909800564870238 0.504404604434967 -0.8634653687477112 
vn -0.04533342272043228 0.5470930337905884 -0.8358433246612549 
vn -0.041567977517843246 0.506473183631897 -0.8612531423568726 
vn -0.09412878006696701 0.562873363494873 -0.8211658596992493 
vn 0.003775141667574644 0.4349917769432068 -0.9004265069961548 
vn -0.028315231204032898 0.4380240738391876 -0.8985171914100647 
vn 0.0037777165416628122 0.4112381339073181 -0.9115201234817505 
vn -0.028336593881249428 0.41426634788513184 -0.9097144603729248 
vn -0.058435507118701935 0.45472252368927 -0.888714075088501 
vn -0.05465753376483917 0.42361143231391907 -0.9041935205459595 
vn -0.06586506217718124 0.4339684844017029 -0.8985171914100647 
vn -0.08276677131652832 0.4548719823360443 -0.8867024183273315 
vn -0.08094677329063416 0.5243667364120483 -0.8476362228393555 
vn -0.11443661153316498 0.5256523489952087 -0.8429672718048096 
vn -0.1367267370223999 0.5796270370483398 -0.8033295273780823 
vt 0.4087181091308594 0.12523779273033142 
vt 0.4087181091308594 0.36582618951797485 
vt 0.27727046608924866 0.3640107214450836 
vt 0.2861681878566742 0.604599118232727 
vt 0.17357082664966583 0.5968636870384216 
vt 0.1908617466688156 0.756071925163269 
vt 0.26997801661491394 0.1251588612794876 
vt 0.15173932909965515 0.3600640594959259 
vt 0.13321006298065186 0.1250009983778 
vt 0.033041998744010925 0.1250799298286438 
vt 0.05863438919186592 0.351460337638855 
vt 0.08867564052343369 0.5794194340705872 
vt 0.1124793142080307 0.7322341203689575 
vt 0.29341477155685425 0.7665700316429138 
vt 0.4087181091308594 0.6083089709281921 
vt 0.4087181091308594 0.7715428471565247 
vt 0.4087181091308594 0.7715428471565247 
vt 0.4087181091308594 0.6083089709281921 
vt 0.29341477155685425 0.7665700316429138 
vt 0.2861681878566742 0.604599118232727 
vt 0.1908617466688156 0.756071925163269 
vt 0.4087181091308594 0.36582618951797485 
vt 0.27727046608924866 0.3640107214450836 
vt 0.4087181091308594 0.12523779273033142 
vt 0.26997801661491394 0.1251588612794876 
vt 0.15173932909965515 0.3600640594959259 
vt 0.13321006298065186 0.1250009983778 
vt 0.033041998744010925 0.1250799298286438 
vt 0.05863438919186592 0.351460337638855 
vt 0.17357082664966583 0.5968636870384216 
vt 0.08867564052343369 0.5794194340705872 
vt 0.1124793142080307 0.7322341203689575 
s on 
f 1/1/1 2/2/2 3/3/3 
f 2/2/2 4/4/4 3/3/3 
f 3/3/3 4/4/4 5/5/5 
f 4/4/4 6/6/6 5/5/5 
f 5/5/5 6/6/6 6/6/6 
f 6/6/6 1/1/1 6/6/6 
f 6/6/6 1/1/1 1/1/1 
f 1/1/1 3/3/3 1/1/1 
f 1/1/1 3/3/3 7/7/7 
f 3/3/3 8/8/8 7/7/7 
f 7/7/7 8/8/8 9/9/9 
f 8/8/8 8/8/8 9/9/9 
f 9/9/9 8/8/8 10/10/10 
f 8/8/8 8/8/8 10/10/10 
f 10/10/10 8/8/8 11/11/11 
f 8/8/8 5/5/5 11/11/11 
f 11/11/11 5/5/5 12/12/12 
f 5/5/5 6/6/6 12/12/12 
f 12/12/12 6/6/6 13/13/13 
f 6/6/6 13/13/13 13/13/13 
f 13/13/13 13/13/13 5/5/5 
f 13/13/13 5/5/5 5/5/5 
f 5/5/5 5/5/5 3/3/3 
f 5/5/5 8/8/8 3/3/3 
f 3/3/3 8/8/8 8/8/8 
f 8/8/8 6/6/6 8/8/8 
f 8/8/8 6/6/6 6/6/6 
f 6/6/6 4/4/4 6/6/6 
f 6/6/6 4/4/4 14/14/14 
f 4/4/4 15/15/15 14/14/14 
f 14/14/14 15/15/15 16/16/16 
f 15/15/15 16/16/16 16/16/16 
f 16/16/16 16/16/16 4/4/4 
f 16/16/16 4/4/4 4/4/4 
f 4/4/4 4/4/4 15/15/15 
f 4/4/4 2/2/2 15/15/15 
f 15/15/15 2/2/2 2/2/2 
f 2/2/2 17/17/17 2/2/2 
f 2/2/2 17/17/17 17/17/17 
f 17/17/17 18/18/18 17/17/17 
f 17/17/17 18/18/18 19/19/19 
f 18/18/18 20/20/20 19/19/19 
f 19/19/19 20/20/20 21/21/21 
f 20/20/20 21/21/21 21/21/21 
f 21/21/21 21/21/21 18/18/18 
f 21/21/21 18/18/18 18/18/18 
f 18/18/18 18/18/18 20/20/20 
f 18/18/18 22/22/22 20/20/20 
f 20/20/20 22/22/22 23/23/23 
f 22/22/22 24/24/24 23/23/23 
f 23/23/23 24/24/24 23/23/23 
f 24/24/24 25/25/25 23/23/23 
f 23/23/23 25/25/25 26/26/26 
f 25/25/25 27/27/27 26/26/26 
f 26/26/26 27/27/27 26/26/26 
f 27/27/27 28/28/28 26/26/26 
f 26/26/26 28/28/28 26/26/26 
f 28/28/28 29/29/29 26/26/26 
f 26/26/26 29/29/29 30/30/30 
f 29/29/29 31/31/31 30/30/30 
f 30/30/30 31/31/31 21/21/21 
f 31/31/31 32/32/32 21/21/21 
f 21/21/21 32/32/32 32/32/32 
f 32/32/32 26/26/26 32/32/32 
f 32/32/32 26/26/26 26/26/26 
f 26/26/26 30/30/30 26/26/26 
f 26/26/26 30/30/30 23/23/23 
f 30/30/30 30/30/30 23/23/23 
f 23/23/23 30/30/30 20/20/20 
f 30/30/30 21/21/21 20/20/20 

