mtllib model_35.mtl
o model_35
v 0.3448220491409302 -0.03843948245048523 -0.10630703717470169 
v 0.33588477969169617 -0.010412902571260929 -0.0871940329670906 
v 0.3077962398529053 -0.07485496997833252 -0.1450386792421341 
v 0.23374463617801666 0.004648999776691198 -0.09528419375419617 
v 0.24395865201950073 -0.06398752331733704 -0.14190374314785004 
v 0.12479513138532639 0.010940681211650372 -0.10013828426599503 
v 0.1273486316204071 -0.05559861287474632 -0.14584769308567047 
v 0.00009901599696604535 0.013800536282360554 -0.10327322036027908 
v 0.00009901599696604535 -0.052929412573575974 -0.14898262917995453 
v 0.35503607988357544 -0.12061265110969543 -0.16576971113681793 
v 0.3133288323879242 -0.04034605249762535 -0.26093021035194397 
v 0.3077962398529053 -0.07485496997833252 -0.1450386792421341 
v 0.24395865201950073 -0.06398752331733704 -0.14190374314785004 
v 0.2358725517988205 -0.027190718799829483 -0.26800909638404846 
v 0.1273486316204071 -0.05559861287474632 -0.14584769308567047 
v 0.1273486316204071 -0.021280352026224136 -0.27296432852745056 
v 0.00009901599696604535 -0.052929412573575974 -0.14898262917995453 
v 0.00009901599696604535 -0.018420496955513954 -0.2760992646217346 
v -0.34462401270866394 -0.03843948245048523 -0.10630703717470169 
v -0.3356867730617523 -0.010412902571260929 -0.0871940329670906 
v -0.3080238103866577 -0.07485496997833252 -0.1450386792421341 
v -0.23354659974575043 0.004648999776691198 -0.09528419375419617 
v -0.2441861927509308 -0.06398752331733704 -0.14190374314785004 
v -0.12459709495306015 0.010940681211650372 -0.10013828426599503 
v -0.12715059518814087 -0.05559861287474632 -0.14584769308567047 
v 0.00009901599696604535 0.013800536282360554 -0.10327322036027908 
v 0.00009901599696604535 -0.052929412573575974 -0.14898262917995453 
v -0.3552636206150055 -0.12061265110969543 -0.16576971113681793 
v -0.31313079595565796 -0.04034605249762535 -0.26093021035194397 
v -0.3080238103866577 -0.07485496997833252 -0.1450386792421341 
v -0.2441861927509308 -0.06398752331733704 -0.14190374314785004 
v -0.23610010743141174 -0.027190718799829483 -0.26800909638404846 
v -0.12715059518814087 -0.05559861287474632 -0.14584769308567047 
v -0.12715059518814087 -0.021280352026224136 -0.27296432852745056 
v 0.00009901599696604535 -0.052929412573575974 -0.14898262917995453 
v 0.00009901599696604535 -0.018420496955513954 -0.2760992646217346 
v 0.40440380573272705 -0.24778087437152863 -0.23170451819896698 
v 0.40397822856903076 -0.2536912262439728 -0.21613095700740814 
v 0.43547144532203674 -0.3764743506908417 -0.29420098662376404 
v 0.4341946840286255 -0.3717079162597656 -0.26194149255752563 
v 0.3435453176498413 -0.039774082601070404 -0.10256533324718475 
v 0.34311971068382263 -0.04987890273332596 -0.09467742592096329 
v 0.36993151903152466 -0.1230911910533905 -0.16081449389457703 
v 0.36950594186782837 -0.12938286364078522 -0.1484769880771637 
v 0.36993151903152466 -0.1230911910533905 -0.16081449389457703 
v 0.36950594186782837 -0.12938286364078522 -0.1484769880771637 
v 0.40440380573272705 -0.24778087437152863 -0.23170451819896698 
v 0.40397822856903076 -0.2536912262439728 -0.21613095700740814 
v 0.35503607988357544 -0.12061265110969543 -0.16576971113681793 
v 0.37035709619522095 -0.12080330401659012 -0.16465730965137482 
v 0.3077962398529053 -0.07485496997833252 -0.1450386792421341 
v 0.3448220491409302 -0.03843948245048523 -0.10630703717470169 
v -0.43442225456237793 -0.3717079162597656 -0.26194149255752563 
v -0.4037801921367645 -0.2536912262439728 -0.21613095700740814 
v -0.4356989860534668 -0.3764743506908417 -0.29420098662376404 
v -0.4042057693004608 -0.24778087437152863 -0.23170451819896698 
v -0.36930790543556213 -0.12938286364078522 -0.1484769880771637 
v -0.3429216742515564 -0.04987890273332596 -0.09467742592096329 
v -0.3697334825992584 -0.1230911910533905 -0.16081449389457703 
v -0.3433472812175751 -0.039774082601070404 -0.10256533324718475 
v -0.4037801921367645 -0.2536912262439728 -0.21613095700740814 
v -0.36930790543556213 -0.12938286364078522 -0.1484769880771637 
v -0.4042057693004608 -0.24778087437152863 -0.23170451819896698 
v -0.3697334825992584 -0.1230911910533905 -0.16081449389457703 
v -0.34462401270866394 -0.03843948245048523 -0.10630703717470169 
v -0.370584636926651 -0.12080330401659012 -0.16465730965137482 
v -0.3080238103866577 -0.07485496997833252 -0.1450386792421341 
v -0.3552636206150055 -0.12061265110969543 -0.16576971113681793 
vn -0.21253672242164612 -0.5931260585784912 0.7765498161315918 
vn -0.147348552942276 -0.6020537614822388 0.7847417593002319 
vn -0.16193729639053345 -0.5982947945594788 0.7847417593002319 
vn -0.09372758865356445 -0.5845525860786438 0.8059239983558655 
vn -0.095578134059906 -0.5878150463104248 0.8033295273780823 
vn -0.05265659838914871 -0.5682551860809326 0.8211658596992493 
vn -0.05265659838914871 -0.5682551860809326 0.8211658596992493 
vn 0.0018832790665328503 -0.5670930743217468 0.8236515522003174 
vn 0.0018832790665328503 -0.5670930743217468 0.8236515522003174 
vn -0.7261996269226074 -0.6487907767295837 -0.22738653421401978 
vn -0.311529278755188 -0.9099025726318359 -0.27391019463539124 
vn -0.4484019875526428 -0.8521705865859985 -0.26970529556274414 
vn -0.10553755611181259 -0.95594722032547 -0.27391019463539124 
vn -0.09802637994289398 -0.9567465782165527 -0.27391019463539124 
vn -0.033982522785663605 -0.9635130763053894 -0.26549527049064636 
vn -0.033982522785663605 -0.9635130763053894 -0.26549527049064636 
vn -0.0018882075091823936 -0.9652611613273621 -0.2612801790237427 
vn -0.0018882075091823936 -0.9652611613273621 -0.2612801790237427 
vn 0.20898368954658508 -0.5943872332572937 0.7765498161315918 
vn 0.15100423991680145 -0.6011472940444946 0.7847417593002319 
vn 0.15829874575138092 -0.5992677807807922 0.7847417593002319 
vn 0.09372758865356445 -0.5845525860786438 0.8059239983558655 
vn 0.0992918461561203 -0.5871990919113159 0.8033295273780823 
vn 0.05265659838914871 -0.5682551860809326 0.8211658596992493 
vn 0.05265659838914871 -0.5682551860809326 0.8211658596992493 
vn 0.0018832790665328503 -0.5670930743217468 0.8236515522003174 
vn 0.0018832790665328503 -0.5670930743217468 0.8236515522003174 
vn 0.7261996269226074 -0.6487907767295837 -0.22738653421401978 
vn 0.311529278755188 -0.9099025726318359 -0.27391019463539124 
vn 0.4517408013343811 -0.8504053950309753 -0.26970529556274414 
vn 0.10553755611181259 -0.95594722032547 -0.27391019463539124 
vn 0.09802637994289398 -0.9567465782165527 -0.27391019463539124 
vn 0.033982522785663605 -0.9635130763053894 -0.26549527049064636 
vn 0.033982522785663605 -0.9635130763053894 -0.26549527049064636 
vn -0.0018882075091823936 -0.9652611613273621 -0.2612801790237427 
vn -0.0018882075091823936 -0.9652611613273621 -0.2612801790237427 
vn 0.9734638929367065 0.2172081172466278 0.07203252613544464 
vn 0.9731473922729492 0.21713750064373016 0.0763898640871048 
vn 0.992024302482605 0.12045355886220932 0.03713129088282585 
vn 0.985550045967102 0.16526459157466888 0.03713129088282585 
vn 0.9644985198974609 0.1651730239391327 0.2060592919588089 
vn 0.9640735387802124 0.17276093363761902 0.2017817199230194 
vn 0.9699274301528931 0.19485342502593994 0.1458524912595749 
vn 0.9692464470863342 0.19495953619480133 0.15017375349998474 
vn 0.9699274301528931 0.19485342502593994 0.1458524912595749 
vn 0.9692464470863342 0.19495953619480133 0.15017375349998474 
vn 0.9734638929367065 0.2172081172466278 0.07203252613544464 
vn 0.9731473922729492 0.21713750064373016 0.0763898640871048 
vn -0.19081923365592957 -0.5897188782691956 0.7847417593002319 
vn -0.19081923365592957 -0.5897188782691956 0.7847417593002319 
vn -0.16193729639053345 -0.5982947945594788 0.7847417593002319 
vn -0.21253672242164612 -0.5931260585784912 0.7765498161315918 
vn -0.985550045967102 0.16526459157466888 0.03713129088282585 
vn -0.9731473922729492 0.21713750064373016 0.0763898640871048 
vn -0.992024302482605 0.12045355886220932 0.03713129088282585 
vn -0.9734638929367065 0.2172081172466278 0.07203252613544464 
vn -0.9684951305389404 0.19865795969963074 0.15017375349998474 
vn -0.9647323489189148 0.1690434366464615 0.2017817199230194 
vn -0.9699274301528931 0.19485342502593994 0.1458524912595749 
vn -0.9638546705245972 0.16888964176177979 0.2060592919588089 
vn -0.9731473922729492 0.21713750064373016 0.0763898640871048 
vn -0.9684951305389404 0.19865795969963074 0.15017375349998474 
vn -0.9734638929367065 0.2172081172466278 0.07203252613544464 
vn -0.9699274301528931 0.19485342502593994 0.1458524912595749 
vn 0.20898368954658508 -0.5943872332572937 0.7765498161315918 
vn 0.18723225593566895 -0.5908675193786621 0.7847417593002319 
vn 0.15829874575138092 -0.5992677807807922 0.7847417593002319 
vn 0.18723225593566895 -0.5908675193786621 0.7847417593002319 
vt 0.30082887411117554 0.09196478128433228 
vt 0.30085474252700806 0.09196478128433228 
vt 0.30082887411117554 0.09196478128433228 
vt 0.30085474252700806 0.09196478128433228 
vt 0.30085474252700806 0.09196478128433228 
vt 0.30085474252700806 0.09196478128433228 
vt 0.30085474252700806 0.09196478128433228 
vt 0.30085474252700806 0.09196478128433228 
vt 0.30085474252700806 0.09196478128433228 
vt 0.29378700256347656 0.30061691999435425 
vt 0.29378700256347656 0.30061691999435425 
vt 0.29378700256347656 0.30061691999435425 
vt 0.29378700256347656 0.30061691999435425 
vt 0.29378700256347656 0.30061691999435425 
vt 0.29378700256347656 0.30061691999435425 
vt 0.29378700256347656 0.30061691999435425 
vt 0.29378700256347656 0.30061691999435425 
vt 0.29378700256347656 0.30061691999435425 
vt 0.30082887411117554 0.09196478128433228 
vt 0.30085474252700806 0.09196478128433228 
vt 0.30082887411117554 0.09196478128433228 
vt 0.30085474252700806 0.09196478128433228 
vt 0.30085474252700806 0.09196478128433228 
vt 0.30085474252700806 0.09196478128433228 
vt 0.30085474252700806 0.09196478128433228 
vt 0.30085474252700806 0.09196478128433228 
vt 0.30085474252700806 0.09196478128433228 
vt 0.29378700256347656 0.30061691999435425 
vt 0.29378700256347656 0.30061691999435425 
vt 0.29378700256347656 0.30061691999435425 
vt 0.29378700256347656 0.30061691999435425 
vt 0.29378700256347656 0.30061691999435425 
vt 0.29378700256347656 0.30061691999435425 
vt 0.29378700256347656 0.30061691999435425 
vt 0.29378700256347656 0.30061691999435425 
vt 0.29378700256347656 0.30061691999435425 
vt 0.30701637268066406 0.08990299701690674 
vt 0.30701637268066406 0.08990299701690674 
vt 0.3066280484199524 0.08990299701690674 
vt 0.30701637268066406 0.08990299701690674 
vt 0.30652448534965515 0.08990299701690674 
vt 0.30701637268066406 0.08990299701690674 
vt 0.30701637268066406 0.08990299701690674 
vt 0.30701637268066406 0.08990299701690674 
vt 0.30701637268066406 0.08990299701690674 
vt 0.30701637268066406 0.08990299701690674 
vt 0.30701637268066406 0.08990299701690674 
vt 0.30701637268066406 0.08990299701690674 
vt 0.30082887411117554 0.09196478128433228 
vt 0.30082887411117554 0.09196478128433228 
vt 0.30082887411117554 0.09196478128433228 
vt 0.30082887411117554 0.09196478128433228 
vt 0.30701637268066406 0.08990299701690674 
vt 0.30701637268066406 0.08990299701690674 
vt 0.3066280484199524 0.08990299701690674 
vt 0.30701637268066406 0.08990299701690674 
vt 0.30701637268066406 0.08990299701690674 
vt 0.30701637268066406 0.08990299701690674 
vt 0.30701637268066406 0.08990299701690674 
vt 0.30652448534965515 0.08990299701690674 
vt 0.30701637268066406 0.08990299701690674 
vt 0.30701637268066406 0.08990299701690674 
vt 0.30701637268066406 0.08990299701690674 
vt 0.30701637268066406 0.08990299701690674 
vt 0.30082887411117554 0.09196478128433228 
vt 0.30082887411117554 0.09196478128433228 
vt 0.30082887411117554 0.09196478128433228 
vt 0.30082887411117554 0.09196478128433228 
s on 
f 1/1/1 2/2/2 3/3/3 
f 2/2/2 4/4/4 3/3/3 
f 3/3/3 4/4/4 5/5/5 
f 4/4/4 6/6/6 5/5/5 
f 5/5/5 6/6/6 7/7/7 
f 6/6/6 8/8/8 7/7/7 
f 7/7/7 8/8/8 9/9/9 
f 8/8/8 9/9/9 9/9/9 
f 9/9/9 9/9/9 10/10/10 
f 9/9/9 10/10/10 10/10/10 
f 10/10/10 10/10/10 11/11/11 
f 10/10/10 12/12/12 11/11/11 
f 11/11/11 12/12/12 11/11/11 
f 12/12/12 13/13/13 11/11/11 
f 11/11/11 13/13/13 14/14/14 
f 13/13/13 15/15/15 14/14/14 
f 14/14/14 15/15/15 16/16/16 
f 15/15/15 17/17/17 16/16/16 
f 16/16/16 17/17/17 18/18/18 
f 17/17/17 18/18/18 18/18/18 
f 18/18/18 18/18/18 19/19/19 
f 18/18/18 19/19/19 19/19/19 
f 19/19/19 19/19/19 20/20/20 
f 19/19/19 21/21/21 20/20/20 
f 20/20/20 21/21/21 22/22/22 
f 21/21/21 23/23/23 22/22/22 
f 22/22/22 23/23/23 24/24/24 
f 23/23/23 25/25/25 24/24/24 
f 24/24/24 25/25/25 26/26/26 
f 25/25/25 27/27/27 26/26/26 
f 26/26/26 27/27/27 27/27/27 
f 27/27/27 28/28/28 27/27/27 
f 27/27/27 28/28/28 28/28/28 
f 28/28/28 29/29/29 28/28/28 
f 28/28/28 29/29/29 30/30/30 
f 29/29/29 29/29/29 30/30/30 
f 30/30/30 29/29/29 31/31/31 
f 29/29/29 32/32/32 31/31/31 
f 31/31/31 32/32/32 33/33/33 
f 32/32/32 34/34/34 33/33/33 
f 33/33/33 34/34/34 35/35/35 
f 34/34/34 36/36/36 35/35/35 
f 35/35/35 36/36/36 36/36/36 
f 36/36/36 37/37/37 36/36/36 
f 36/36/36 37/37/37 37/37/37 
f 37/37/37 38/38/38 37/37/37 
f 37/37/37 38/38/38 39/39/39 
f 38/38/38 40/40/40 39/39/39 
f 39/39/39 40/40/40 40/40/40 
f 40/40/40 41/41/41 40/40/40 
f 40/40/40 41/41/41 41/41/41 
f 41/41/41 42/42/42 41/41/41 
f 41/41/41 42/42/42 43/43/43 
f 42/42/42 44/44/44 43/43/43 
f 43/43/43 44/44/44 44/44/44 
f 44/44/44 45/45/45 44/44/44 
f 44/44/44 45/45/45 45/45/45 
f 45/45/45 46/46/46 45/45/45 
f 45/45/45 46/46/46 47/47/47 
f 46/46/46 48/48/48 47/47/47 
f 47/47/47 48/48/48 48/48/48 
f 48/48/48 49/49/49 48/48/48 
f 48/48/48 49/49/49 49/49/49 
f 49/49/49 50/50/50 49/49/49 
f 49/49/49 50/50/50 51/51/51 
f 50/50/50 52/52/52 51/51/51 
f 51/51/51 52/52/52 52/52/52 
f 52/52/52 53/53/53 52/52/52 
f 52/52/52 53/53/53 53/53/53 
f 53/53/53 54/54/54 53/53/53 
f 53/53/53 54/54/54 55/55/55 
f 54/54/54 56/56/56 55/55/55 
f 55/55/55 56/56/56 56/56/56 
f 56/56/56 57/57/57 56/56/56 
f 56/56/56 57/57/57 57/57/57 
f 57/57/57 58/58/58 57/57/57 
f 57/57/57 58/58/58 59/59/59 
f 58/58/58 60/60/60 59/59/59 
f 59/59/59 60/60/60 60/60/60 
f 60/60/60 61/61/61 60/60/60 
f 60/60/60 61/61/61 61/61/61 
f 61/61/61 62/62/62 61/61/61 
f 61/61/61 62/62/62 63/63/63 
f 62/62/62 64/64/64 63/63/63 
f 63/63/63 64/64/64 64/64/64 
f 64/64/64 65/65/65 64/64/64 
f 64/64/64 65/65/65 65/65/65 
f 65/65/65 66/66/66 65/65/65 
f 65/65/65 66/66/66 67/67/67 
f 66/66/66 68/68/68 67/67/67 

