mtllib model_52.mtl
o model_52
v 0.08649435639381409 -0.03661421313881874 0.021109655499458313 
v 0.08951382339000702 -0.0056620389223098755 0.012944755144417286 
v -0.09467323869466782 -0.03661421313881874 0.041113659739494324 
v -0.09014405310153961 -0.0056620389223098755 0.03294875845313072 
v -0.08410512655973434 0.028514321893453598 0.020293164998292923 
v -0.06900782883167267 0.042055897414684296 0.014169489964842796 
v 0.09253328293561935 0.042700737714767456 -0.004201535135507584 
v -0.09769269824028015 -0.03983839973807335 0.03580647334456444 
v -0.09467323869466782 -0.03661421313881874 0.041113659739494324 
v -0.09316351264715195 -0.007596550043672323 0.02723333053290844 
v -0.09014405310153961 -0.0056620389223098755 0.03294875845313072 
v -0.08561486005783081 0.027224648743867874 0.014577735215425491 
v -0.08410512655973434 0.028514321893453598 0.020293164998292923 
v -0.07051756232976913 0.041411060839891434 0.007637570146471262 
v -0.06900782883167267 0.042055897414684296 0.014169489964842796 
v 0.09404300898313522 0.042055897414684296 -0.010733455419540405 
v 0.09253328293561935 0.042700737714767456 -0.004201535135507584 
v 0.08649435639381409 -0.03661421313881874 0.021109655499458313 
v 0.08800408989191055 -0.03983839973807335 0.015394224785268307 
v 0.08951382339000702 -0.0056620389223098755 0.012944755144417286 
v 0.08951382339000702 -0.007596550043672323 0.006821080110967159 
v 0.09253328293561935 0.042700737714767456 -0.004201535135507584 
v 0.09404300898313522 0.042055897414684296 -0.010733455419540405 
v -0.09467323869466782 -0.03661421313881874 0.041113659739494324 
v -0.09769269824028015 -0.03983839973807335 0.03580647334456444 
v 0.08649435639381409 -0.03661421313881874 0.021109655499458313 
v 0.08800408989191055 -0.03983839973807335 0.015394224785268307 
vn 0.10941547155380249 0.2395864725112915 0.9646899104118347 
vn 0.10852233320474625 0.2853340208530426 0.9522643685340881 
vn 0.10941547155380249 0.2395864725112915 0.9646899104118347 
vn 0.1031293272972107 0.2784574627876282 0.9548956751823425 
vn 0.10726110637187958 0.3252461850643158 0.9395264387130737 
vn 0.10726110637187958 0.3252461850643158 0.9395264387130737 
vn 0.10726110637187958 0.3252461850643158 0.9395264387130737 
vn -0.9318637847900391 0.22789078950881958 0.28230419754981995 
vn -0.9318637847900391 0.22789078950881958 0.28230419754981995 
vn -0.926504909992218 0.2534630596637726 0.2781098484992981 
vn -0.926504909992218 0.2534630596637726 0.2781098484992981 
vn -0.8369874358177185 0.5391222834587097 -0.09380380809307098 
vn -0.8231692910194397 0.5383963584899902 0.18033768236637115 
vn -0.4469055235385895 0.8093118071556091 -0.3811691105365753 
vn -0.3616342842578888 0.9322560429573059 -0.010923261754214764 
vn -0.03209000825881958 0.9550031423568726 -0.2948545813560486 
vn -0.013210099190473557 0.9959034323692322 -0.08945280313491821 
vn 0.9858840107917786 -0.0377437099814415 0.16312000155448914 
vn 0.9752309322357178 -0.1280740648508072 -0.18033768236637115 
vn 0.9872725605964661 -0.037750840187072754 0.15449213981628418 
vn 0.951066792011261 -0.1429864913225174 -0.27391019463539124 
vn 0.9881986379623413 -0.030186954885721207 0.15017375349998474 
vn 0.94608074426651 -0.14296244084835052 -0.29067665338516235 
vn 0.05281477048993111 -0.8779413104057312 0.4758462607860565 
vn 0.01886850968003273 -0.9920770525932312 0.1242060661315918 
vn 0.05281477048993111 -0.8779413104057312 0.4758462607860565 
vn 0.013208339922130108 -0.9981734156608582 0.058952588587999344 
vt 0.9307950139045715 0.9325879812240601 
vt 0.9307950139045715 0.9325879812240601 
vt 0.9307950139045715 0.9325879812240601 
vt 0.9307950139045715 0.9325879812240601 
vt 0.9307950139045715 0.9325879812240601 
vt 0.9307950139045715 0.9325879812240601 
vt 0.9307950139045715 0.9325879812240601 
vt 0.9307950139045715 0.9325879812240601 
vt 0.9307950139045715 0.9325879812240601 
vt 0.9307950139045715 0.9325879812240601 
vt 0.9307950139045715 0.9325879812240601 
vt 0.9307950139045715 0.9325879812240601 
vt 0.9307950139045715 0.9325879812240601 
vt 0.9307950139045715 0.9325879812240601 
vt 0.9307950139045715 0.9325879812240601 
vt 0.9307950139045715 0.9325879812240601 
vt 0.9307950139045715 0.9325879812240601 
vt 0.9307950139045715 0.9325879812240601 
vt 0.9307950139045715 0.9325879812240601 
vt 0.9307950139045715 0.9325879812240601 
vt 0.9307950139045715 0.9325879812240601 
vt 0.9307950139045715 0.9325879812240601 
vt 0.9307950139045715 0.9325879812240601 
vt 0.9307950139045715 0.9325879812240601 
vt 0.9307950139045715 0.9325879812240601 
vt 0.9307950139045715 0.9325879812240601 
vt 0.9307950139045715 0.9325879812240601 
s on 
f 1/1/1 2/2/2 3/3/3 
f 2/2/2 2/2/2 3/3/3 
f 3/3/3 2/2/2 4/4/4 
f 2/2/2 2/2/2 4/4/4 
f 4/4/4 2/2/2 5/5/5 
f 2/2/2 2/2/2 5/5/5 
f 5/5/5 2/2/2 6/6/6 
f 2/2/2 7/7/7 6/6/6 
f 6/6/6 7/7/7 7/7/7 
f 7/7/7 8/8/8 7/7/7 
f 7/7/7 8/8/8 8/8/8 
f 8/8/8 9/9/9 8/8/8 
f 8/8/8 9/9/9 10/10/10 
f 9/9/9 11/11/11 10/10/10 
f 10/10/10 11/11/11 12/12/12 
f 11/11/11 13/13/13 12/12/12 
f 12/12/12 13/13/13 14/14/14 
f 13/13/13 15/15/15 14/14/14 
f 14/14/14 15/15/15 16/16/16 
f 15/15/15 17/17/17 16/16/16 
f 16/16/16 17/17/17 17/17/17 
f 17/17/17 18/18/18 17/17/17 
f 17/17/17 18/18/18 18/18/18 
f 18/18/18 19/19/19 18/18/18 
f 18/18/18 19/19/19 20/20/20 
f 19/19/19 21/21/21 20/20/20 
f 20/20/20 21/21/21 22/22/22 
f 21/21/21 23/23/23 22/22/22 
f 22/22/22 23/23/23 23/23/23 
f 23/23/23 24/24/24 23/23/23 
f 23/23/23 24/24/24 24/24/24 
f 24/24/24 25/25/25 24/24/24 
f 24/24/24 25/25/25 26/26/26 
f 25/25/25 27/27/27 26/26/26 

