mtllib model_49.mtl
o model_49
v -0.14424699544906616 0.04092838615179062 0.040159035474061966 
v -0.14185364544391632 0.04080815613269806 -0.008883043192327023 
v -0.14200322329998016 -0.036381494253873825 0.040159035474061966 
v -0.13946028053760529 -0.03826514631509781 -0.008883043192327023 
v -0.14185364544391632 0.04080815613269806 -0.008883043192327023 
v -0.09832440316677094 0.040727999061346054 -0.01239829696714878 
v -0.13946028053760529 -0.03826514631509781 -0.008883043192327023 
v -0.09578146040439606 -0.038505613803863525 -0.01231255941092968 
v 0.04213590919971466 0.018204331398010254 -0.019000114873051643 
v 0.14041325449943542 0.018204331398010254 -0.022200996056199074 
v 0.04213590919971466 -0.013897906057536602 -0.018942955881357193 
v 0.14056284725666046 -0.01393798366189003 -0.022143838927149773 
v -0.09353768825531006 0.040727999061346054 -0.012684090062975883 
v 0.020595669746398926 0.0406879223883152 -0.018314212560653687 
v -0.09099473804235458 -0.038505613803863525 -0.012569773010909557 
v 0.020595669746398926 -0.038625847548246384 -0.018199894577264786 
v 0.04213590919971466 -0.013897906057536602 -0.018942955881357193 
v 0.14056284725666046 -0.01393798366189003 -0.022143838927149773 
v 0.1665906310081482 -0.03866592422127724 -0.02277258224785328 
v 0.14041325449943542 0.018204331398010254 -0.022200996056199074 
v 0.1665906310081482 0.0406879223883152 -0.02288690023124218 
v 0.04213590919971466 0.018204331398010254 -0.019000114873051643 
v -0.13587023317813873 -0.03730328381061554 0.04170231893658638 
v -0.13826359808444977 0.04225095361471176 0.04170231893658638 
v -0.14200322329998016 -0.036381494253873825 0.040159035474061966 
v -0.14424699544906616 0.04092838615179062 0.040159035474061966 
v -0.14200322329998016 -0.036381494253873825 0.040159035474061966 
v -0.13946028053760529 -0.03826514631509781 -0.008883043192327023 
v -0.13587023317813873 -0.03730328381061554 0.04170231893658638 
v -0.13362646102905273 -0.03922701254487038 -0.0029671278316527605 
v -0.09578146040439606 -0.038505613803863525 -0.01231255941092968 
v -0.09428560733795166 -0.03958771005272865 -0.006253747269511223 
v -0.13826359808444977 0.04225095361471176 0.04170231893658638 
v -0.14424699544906616 0.04092838615179062 0.040159035474061966 
v -0.13587023317813873 0.0420505627989769 -0.0030814451165497303 
v -0.14185364544391632 0.04080815613269806 -0.008883043192327023 
v -0.09682855755090714 0.04189025238156319 -0.006339485291391611 
v -0.09832440316677094 0.040727999061346054 -0.01239829696714878 
v -0.09682855755090714 0.04189025238156319 -0.006339485291391611 
v -0.09832440316677094 0.040727999061346054 -0.01239829696714878 
v -0.09428560733795166 -0.03958771005272865 -0.006253747269511223 
v -0.09578146040439606 -0.038505613803863525 -0.01231255941092968 
v -0.09174266457557678 -0.039627790451049805 -0.006396643817424774 
v -0.09099473804235458 -0.038505613803863525 -0.012569773010909557 
v -0.0944351926445961 0.04185017570853233 -0.006482381839305162 
v -0.09353768825531006 0.040727999061346054 -0.012684090062975883 
v -0.09099473804235458 -0.038505613803863525 -0.012569773010909557 
v -0.09174266457557678 -0.039627790451049805 -0.006396643817424774 
v 0.020595669746398926 -0.038625847548246384 -0.018199894577264786 
v 0.020894840359687805 -0.039748020470142365 -0.012083924375474453 
v 0.1665906310081482 -0.03866592422127724 -0.02277258224785328 
v 0.16793689131736755 -0.039788100868463516 -0.01668519154191017 
v -0.0944351926445961 0.04185017570853233 -0.006482381839305162 
v -0.09353768825531006 0.040727999061346054 -0.012684090062975883 
v 0.020894840359687805 0.04185017570853233 -0.012198241427540779 
v 0.020595669746398926 0.0406879223883152 -0.018314212560653687 
v 0.1677873134613037 0.04185017570853233 -0.016799509525299072 
v 0.1665906310081482 0.0406879223883152 -0.02288690023124218 
v 0.1677873134613037 0.04185017570853233 -0.016799509525299072 
v 0.1665906310081482 0.0406879223883152 -0.02288690023124218 
v 0.16793689131736755 -0.039788100868463516 -0.01668519154191017 
v 0.1665906310081482 -0.03866592422127724 -0.02277258224785328 
vn -0.9983881115913391 -0.02642698958516121 -0.05022686347365379 
vn -0.9983881115913391 -0.02642698958516121 -0.05022686347365379 
vn -0.9983881115913391 -0.02642698958516121 -0.05022686347365379 
vn -0.9983881115913391 -0.02642698958516121 -0.05022686347365379 
vn -0.07847624272108078 -0.0037958852481096983 -0.9969087839126587 
vn -0.07847624272108078 -0.0037958852481096983 -0.9969087839126587 
vn -0.07847624272108078 -0.0037958852481096983 -0.9969087839126587 
vn -0.07847624272108078 -0.0037958852481096983 -0.9969087839126587 
vn -0.030339833348989487 0.003832812188193202 -0.9995322823524475 
vn -0.030339833348989487 0.003832812188193202 -0.9995322823524475 
vn -0.030339833348989487 -0.003832812188193202 -0.9995322823524475 
vn -0.030339833348989487 -0.003832812188193202 -0.9995322823524475 
vn -0.048044804483652115 -9.936776438300692e-15 -0.9988451600074768 
vn -0.0393143892288208 -8.131124117386705e-15 -0.9992268681526184 
vn -0.048044804483652115 -9.936776438300692e-15 -0.9988451600074768 
vn -0.0393143892288208 -8.131124117386705e-15 -0.9992268681526184 
vn -0.030339833348989487 -0.003832812188193202 -0.9995322823524475 
vn -0.030339833348989487 -0.003832812188193202 -0.9995322823524475 
vn -0.030339833348989487 -0.003832812188193202 -0.9995322823524475 
vn -0.030339833348989487 0.003832812188193202 -0.9995322823524475 
vn -0.0259205661714077 0.0039068968035280704 -0.9996563792228699 
vn -0.030339833348989487 0.003832812188193202 -0.9995322823524475 
vn 0.09133139997720718 0.007373033091425896 0.9957932829856873 
vn 0.029756659641861916 0.007052457891404629 0.9995322823524475 
vn -0.25060853362083435 -0.00750042824074626 0.9680594801902771 
vn -0.25060853362083435 -0.00750042824074626 0.9680594801902771 
vn -0.17272897064685822 -0.9844242930412292 0.03276457265019417 
vn -0.09426852315664291 -0.9932440519332886 -0.06767380982637405 
vn 0.10366728156805038 -0.9935541152954102 0.04586252197623253 
vn -0.007548788096755743 -0.9995682239532471 0.028397228568792343 
vn -0.018865788355469704 -0.987129271030426 -0.15880759060382843 
vn 0.005659987218677998 -0.9932878017425537 0.11553031951189041 
vn 0.21725408732891083 0.9760931134223938 0.006554040592163801 
vn -0.20246781408786774 0.979169487953186 -0.0152922747656703 
vn 0.03772452101111412 0.9985980987548828 0.03713129088282585 
vn -0.10547920316457748 0.9891247749328613 -0.10250037163496017 
vn 0.02074439637362957 0.9783195853233337 0.2060592919588089 
vn -0.013215706683695316 0.9819023609161377 -0.18892620503902435 
vn 0.9992848038673401 0.03775046393275261 0.002184694167226553 
vn 0.9702708125114441 0.030189892277121544 -0.2401314377784729 
vn 0.9987506866455078 0.03773028776049614 0.03276457265019417 
vn 0.9702708125114441 0.030189892277121544 -0.2401314377784729 
vn -0.9990940093994141 -0.037743259221315384 0.01966099627315998 
vn -0.991797149181366 -0.03018677607178688 -0.1242060661315918 
vn -0.9992848038673401 -0.03775046393275261 -0.002184694167226553 
vn -0.991797149181366 -0.03018677607178688 -0.1242060661315918 
vn -0.01133258081972599 -0.9835394620895386 -0.18033768236637115 
vn 0.009438086301088333 -0.986561119556427 0.16312000155448914 
vn -0.01133258081972599 -0.9835394620895386 -0.18033768236637115 
vn 0.005660903174430132 -0.9886434078216553 0.15017375349998474 
vn -0.0037776012904942036 -0.9835975170135498 -0.18033768236637115 
vn 3.0962423380395676e-13 -0.9994630813598633 0.03276457265019417 
vn 0.016971183940768242 0.9566708207130432 0.29067665338516235 
vn -0.011323394253849983 0.982742190361023 -0.18463370203971863 
vn 0.009430071339011192 0.9617090225219727 0.27391019463539124 
vn -0.003774539101868868 0.9828001856803894 -0.18463370203971863 
vn 0.0018859885167330503 0.9905413389205933 0.1372016966342926 
vn -0.003774539101868868 0.9828001856803894 -0.18463370203971863 
vn 0.9767014384269714 0 -0.21460255980491638 
vn 0.9767014384269714 0 -0.21460255980491638 
vn 0.9767014384269714 0 -0.21460255980491638 
vn 0.9767014384269714 0 -0.21460255980491638 
vt 0.9206240177154541 0.7949604392051697 
vt 0.9206240177154541 0.7949604392051697 
vt 0.9206240177154541 0.7949604392051697 
vt 0.9206240177154541 0.7949604392051697 
vt 0.9206240177154541 0.7949604392051697 
vt 0.9206240177154541 0.7949604392051697 
vt 0.9206240177154541 0.7949604392051697 
vt 0.9206240177154541 0.7949604392051697 
vt 0.9460195302963257 0.5055059790611267 
vt 0.9460195302963257 0.5055059790611267 
vt 0.9460195302963257 0.5055059790611267 
vt 0.9460195302963257 0.5055059790611267 
vt 0.9307623505592346 0.6374881267547607 
vt 0.9307623505592346 0.6374881267547607 
vt 0.9307623505592346 0.6374881267547607 
vt 0.9307623505592346 0.6374881267547607 
vt 0.9307623505592346 0.6374881267547607 
vt 0.9307623505592346 0.6374881267547607 
vt 0.9307623505592346 0.6374881267547607 
vt 0.9307623505592346 0.6374881267547607 
vt 0.9307623505592346 0.6374881267547607 
vt 0.9307623505592346 0.6374881267547607 
vt 0.9206240177154541 0.7949604392051697 
vt 0.9206240177154541 0.7949604392051697 
vt 0.9206240177154541 0.7949604392051697 
vt 0.9206240177154541 0.7949604392051697 
vt 0.9206240177154541 0.7949604392051697 
vt 0.9206240177154541 0.7949604392051697 
vt 0.9206240177154541 0.7949604392051697 
vt 0.9206240177154541 0.7949604392051697 
vt 0.9206240177154541 0.7949604392051697 
vt 0.9206240177154541 0.7949604392051697 
vt 0.9206240177154541 0.7949604392051697 
vt 0.9206240177154541 0.7949604392051697 
vt 0.9206240177154541 0.7949604392051697 
vt 0.9206240177154541 0.7949604392051697 
vt 0.9206240177154541 0.7949604392051697 
vt 0.9206240177154541 0.7949604392051697 
vt 0.9206240177154541 0.7949604392051697 
vt 0.9206240177154541 0.7949604392051697 
vt 0.9206240177154541 0.7949604392051697 
vt 0.9206240177154541 0.7949604392051697 
vt 0.9307623505592346 0.6374881267547607 
vt 0.9307623505592346 0.6374881267547607 
vt 0.9307623505592346 0.6374881267547607 
vt 0.9307623505592346 0.6374881267547607 
vt 0.9307623505592346 0.6374881267547607 
vt 0.9307623505592346 0.6374881267547607 
vt 0.9307623505592346 0.6374881267547607 
vt 0.9307623505592346 0.6374881267547607 
vt 0.9307623505592346 0.6374881267547607 
vt 0.9307623505592346 0.6374881267547607 
vt 0.9307623505592346 0.6374881267547607 
vt 0.9307623505592346 0.6374881267547607 
vt 0.9307623505592346 0.6374881267547607 
vt 0.9307623505592346 0.6374881267547607 
vt 0.9307623505592346 0.6374881267547607 
vt 0.9307623505592346 0.6374881267547607 
vt 0.9307623505592346 0.6374881267547607 
vt 0.9307623505592346 0.6374881267547607 
vt 0.9307623505592346 0.6374881267547607 
vt 0.9307623505592346 0.6374881267547607 
s on 
f 1/1/1 2/2/2 3/3/3 
f 2/2/2 4/4/4 3/3/3 
f 3/3/3 4/4/4 4/4/4 
f 4/4/4 5/5/5 4/4/4 
f 4/4/4 5/5/5 5/5/5 
f 5/5/5 6/6/6 5/5/5 
f 5/5/5 6/6/6 7/7/7 
f 6/6/6 8/8/8 7/7/7 
f 7/7/7 8/8/8 8/8/8 
f 8/8/8 9/9/9 8/8/8 
f 8/8/8 9/9/9 9/9/9 
f 9/9/9 10/10/10 9/9/9 
f 9/9/9 10/10/10 11/11/11 
f 10/10/10 12/12/12 11/11/11 
f 11/11/11 12/12/12 12/12/12 
f 12/12/12 13/13/13 12/12/12 
f 12/12/12 13/13/13 13/13/13 
f 13/13/13 14/14/14 13/13/13 
f 13/13/13 14/14/14 15/15/15 
f 14/14/14 14/14/14 15/15/15 
f 15/15/15 14/14/14 16/16/16 
f 14/14/14 17/17/17 16/16/16 
f 16/16/16 17/17/17 16/16/16 
f 17/17/17 18/18/18 16/16/16 
f 16/16/16 18/18/18 19/19/19 
f 18/18/18 20/20/20 19/19/19 
f 19/19/19 20/20/20 21/21/21 
f 20/20/20 22/22/22 21/21/21 
f 21/21/21 22/22/22 14/14/14 
f 22/22/22 17/17/17 14/14/14 
f 14/14/14 17/17/17 17/17/17 
f 17/17/17 23/23/23 17/17/17 
f 17/17/17 23/23/23 23/23/23 
f 23/23/23 24/24/24 23/23/23 
f 23/23/23 24/24/24 25/25/25 
f 24/24/24 26/26/26 25/25/25 
f 25/25/25 26/26/26 26/26/26 
f 26/26/26 27/27/27 26/26/26 
f 26/26/26 27/27/27 27/27/27 
f 27/27/27 28/28/28 27/27/27 
f 27/27/27 28/28/28 29/29/29 
f 28/28/28 28/28/28 29/29/29 
f 29/29/29 28/28/28 30/30/30 
f 28/28/28 31/31/31 30/30/30 
f 30/30/30 31/31/31 32/32/32 
f 31/31/31 32/32/32 32/32/32 
f 32/32/32 32/32/32 33/33/33 
f 32/32/32 33/33/33 33/33/33 
f 33/33/33 33/33/33 34/34/34 
f 33/33/33 35/35/35 34/34/34 
f 34/34/34 35/35/35 36/36/36 
f 35/35/35 37/37/37 36/36/36 
f 36/36/36 37/37/37 38/38/38 
f 37/37/37 38/38/38 38/38/38 
f 38/38/38 38/38/38 39/39/39 
f 38/38/38 39/39/39 39/39/39 
f 39/39/39 39/39/39 40/40/40 
f 39/39/39 41/41/41 40/40/40 
f 40/40/40 41/41/41 42/42/42 
f 41/41/41 42/42/42 42/42/42 
f 42/42/42 42/42/42 43/43/43 
f 42/42/42 43/43/43 43/43/43 
f 43/43/43 43/43/43 44/44/44 
f 43/43/43 45/45/45 44/44/44 
f 44/44/44 45/45/45 46/46/46 
f 45/45/45 46/46/46 46/46/46 
f 46/46/46 46/46/46 47/47/47 
f 46/46/46 47/47/47 47/47/47 
f 47/47/47 47/47/47 48/48/48 
f 47/47/47 49/49/49 48/48/48 
f 48/48/48 49/49/49 50/50/50 
f 49/49/49 51/51/51 50/50/50 
f 50/50/50 51/51/51 52/52/52 
f 51/51/51 52/52/52 52/52/52 
f 52/52/52 52/52/52 53/53/53 
f 52/52/52 53/53/53 53/53/53 
f 53/53/53 53/53/53 54/54/54 
f 53/53/53 55/55/55 54/54/54 
f 54/54/54 55/55/55 56/56/56 
f 55/55/55 57/57/57 56/56/56 
f 56/56/56 57/57/57 58/58/58 
f 57/57/57 58/58/58 58/58/58 
f 58/58/58 58/58/58 59/59/59 
f 58/58/58 59/59/59 59/59/59 
f 59/59/59 59/59/59 60/60/60 
f 59/59/59 61/61/61 60/60/60 
f 60/60/60 61/61/61 62/62/62 

