mtllib model_13.mtl
o model_13
v 0.17295719683170319 0.07421725243330002 0.04902000352740288 
v 0.00011743199866032228 0.07401135563850403 0.050841640681028366 
v 0.17295719683170319 -0.005927457008510828 0.047405365854501724 
v 0.00011743199866032228 -0.006030404474586248 0.04806778207421303 
v 0.00011743199866032228 -0.006956932600587606 0.04078122228384018 
v 0.17389526963233948 -0.006853985134512186 0.040118809789419174 
v 0.00011743199866032228 -0.006030404474586248 0.04806778207421303 
v 0.17295719683170319 -0.005927457008510828 0.047405365854501724 
v 0.17389526963233948 0.07555557042360306 0.04181624576449394 
v 0.00011743199866032228 0.07529819756746292 0.04363788664340973 
v 0.17295719683170319 0.07421725243330002 0.04902000352740288 
v 0.00011743199866032228 0.07401135563850403 0.050841640681028366 
v 0.17389526963233948 -0.006853985134512186 0.040118809789419174 
v 0.17389526963233948 0.07555557042360306 0.04181624576449394 
v 0.17295719683170319 -0.005927457008510828 0.047405365854501724 
v 0.17295719683170319 0.07421725243330002 0.04902000352740288 
v 0.00011743199866032228 0.07529819756746292 0.04363788664340973 
v 0.17389526963233948 0.07555557042360306 0.04181624576449394 
v 0.00011743199866032228 -0.006956932600587606 0.04078122228384018 
v 0.17389526963233948 -0.006853985134512186 0.040118809789419174 
v 0.00011743199866032228 -0.012670524418354034 -0.03125634416937828 
v 0.00011743199866032228 -0.021884335204958916 -0.006871212273836136 
v 0.11972161382436752 -0.011383679695427418 -0.03154614940285683 
v 0.12019065022468567 -0.021626966074109077 -0.008278843015432358 
v 0.24002934992313385 -0.009787991642951965 -0.03291237726807594 
v 0.24002934992313385 -0.021266648545861244 -0.012998545542359352 
v 0.24002934992313385 -0.02924508787691593 -0.014488978311419487 
v 0.24002934992313385 -0.021266648545861244 -0.012998545542359352 
v 0.12019065022468567 -0.029553931206464767 -0.009727874770760536 
v 0.12019065022468567 -0.021626966074109077 -0.008278843015432358 
v 0.00011743199866032228 -0.029811300337314606 -0.008320244029164314 
v 0.00011743199866032228 -0.021884335204958916 -0.006871212273836136 
v -0.12019030004739761 -0.021626966074109077 -0.008278843015432358 
v -0.12019030004739761 -0.029553931206464767 -0.009727874770760536 
v -0.2400290071964264 -0.021266648545861244 -0.012998545542359352 
v -0.2400290071964264 -0.02924508787691593 -0.014488978311419487 
v 0.24002934992313385 -0.02924508787691593 -0.0339060015976429 
v 0.12019065022468567 -0.029553931206464767 -0.0291448961943388 
v 0.24002934992313385 -0.02924508787691593 -0.014488978311419487 
v 0.12019065022468567 -0.029553931206464767 -0.009727874770760536 
v 0.00011743199866032228 -0.029811300337314606 -0.027737265452742577 
v 0.00011743199866032228 -0.029811300337314606 -0.008320244029164314 
v -0.12019030004739761 -0.029553931206464767 -0.009727874770760536 
v -0.12019030004739761 -0.029553931206464767 -0.0291448961943388 
v -0.2400290071964264 -0.02924508787691593 -0.014488978311419487 
v -0.2400290071964264 -0.02924508787691593 -0.0339060015976429 
v 0.00011743199866032228 -0.029811300337314606 -0.027737265452742577 
v 0.12019065022468567 -0.029553931206464767 -0.0291448961943388 
v 0.00011743199866032228 -0.012670524418354034 -0.03125634416937828 
v 0.11972161382436752 -0.011383679695427418 -0.03154614940285683 
v 0.24002934992313385 -0.02924508787691593 -0.0339060015976429 
v 0.24002934992313385 -0.009787991642951965 -0.03291237726807594 
v 0.00011743199866032228 -0.006030404474586248 0.04806778207421303 
v 0.00011743199866032228 0.07401135563850403 0.050841640681028366 
v -0.17295685410499573 -0.005927457008510828 0.047405365854501724 
v -0.17295685410499573 0.07421725243330002 0.04902000352740288 
v -0.17295685410499573 -0.005927457008510828 0.047405365854501724 
v -0.17389492690563202 -0.006853985134512186 0.040118809789419174 
v 0.00011743199866032228 -0.006030404474586248 0.04806778207421303 
v 0.00011743199866032228 -0.006956932600587606 0.04078122228384018 
v 0.00011743199866032228 0.07401135563850403 0.050841640681028366 
v 0.00011743199866032228 0.07529819756746292 0.04363788664340973 
v -0.17295685410499573 0.07421725243330002 0.04902000352740288 
v -0.17389492690563202 0.07555557042360306 0.04181624576449394 
v -0.17295685410499573 0.07421725243330002 0.04902000352740288 
v -0.17389492690563202 0.07555557042360306 0.04181624576449394 
v -0.17295685410499573 -0.005927457008510828 0.047405365854501724 
v -0.17389492690563202 -0.006853985134512186 0.040118809789419174 
v -0.17389492690563202 -0.006853985134512186 0.040118809789419174 
v -0.17389492690563202 0.07555557042360306 0.04181624576449394 
v 0.00011743199866032228 -0.006956932600587606 0.04078122228384018 
v 0.00011743199866032228 0.07529819756746292 0.04363788664340973 
v 0.00011743199866032228 -0.012670524418354034 -0.03125634416937828 
v -0.11972126364707947 -0.011383679695427418 -0.03154614940285683 
v 0.00011743199866032228 -0.021884335204958916 -0.006871212273836136 
v -0.12019030004739761 -0.021626966074109077 -0.008278843015432358 
v -0.2400290071964264 -0.009787991642951965 -0.03291237726807594 
v -0.2400290071964264 -0.021266648545861244 -0.012998545542359352 
v 0.00011743199866032228 -0.029811300337314606 -0.027737265452742577 
v 0.00011743199866032228 -0.012670524418354034 -0.03125634416937828 
v -0.12019030004739761 -0.029553931206464767 -0.0291448961943388 
v -0.11972126364707947 -0.011383679695427418 -0.03154614940285683 
v -0.2400290071964264 -0.02924508787691593 -0.0339060015976429 
v -0.2400290071964264 -0.009787991642951965 -0.03291237726807594 
vn 0.005333262961357832 -0.025665070861577988 0.9996563792228699 
vn -0.0017888620495796204 -0.026152238249778748 0.9996563792228699 
vn 0.005333262961357832 -0.025665070861577988 0.9996563792228699 
vn -0.0017888620495796204 -0.026152238249778748 0.9996563792228699 
vn 0.003773920238018036 -0.9922492504119873 0.1242060661315918 
vn 0.003773920238018036 -0.9922492504119873 0.1242060661315918 
vn 0.003773920238018036 -0.9922492504119873 0.1242060661315918 
vn 0.003773920238018036 -0.9922492504119873 0.1242060661315918 
vn -0.001886497950181365 0.9836029410362244 0.18033768236637115 
vn -0.001886497950181365 0.9836029410362244 0.18033768236637115 
vn -0.001886497950181365 0.9836029410362244 0.18033768236637115 
vn -0.001886497950181365 0.9836029410362244 0.18033768236637115 
vn 0.9893063306808472 0 0.1458524912595749 
vn 0.9893063306808472 0 0.1458524912595749 
vn 0.9893063306808472 0 0.1458524912595749 
vn 0.9893063306808472 0 0.1458524912595749 
vn 0.001958925975486636 0.02614004909992218 -0.9996563792228699 
vn -0.005833018571138382 0.02555612474679947 -0.9996563792228699 
vn 0.001958925975486636 0.02614004909992218 -0.9996563792228699 
vn -0.005833018571138382 0.02555612474679947 -0.9996563792228699 
vn -0.0018869141349568963 0.9261600375175476 0.37712597846984863 
vn -0.0018869141349568963 0.9261600375175476 0.37712597846984863 
vn 0.0037741255946457386 0.910611629486084 0.41324591636657715 
vn 0.0037741255946457386 0.910611629486084 0.41324591636657715 
vn 0.007547071203589439 0.8936370611190796 0.4487268626689911 
vn 0.007547071203589439 0.8936370611190796 0.4487268626689911 
vn 0.0389556810259819 -0.18267285823822021 0.9824016690254211 
vn 0.0389556810259819 -0.18267285823822021 0.9824016690254211 
vn 0.0242835134267807 -0.18086320161819458 0.983208417892456 
vn 0.0242835134267807 -0.18086320161819458 0.983208417892456 
vn 0.0018734870245680213 -0.18247652053833008 0.983208417892456 
vn 0.0018734870245680213 -0.18247652053833008 0.983208417892456 
vn -0.027991849929094315 -0.18032649159431458 0.983208417892456 
vn -0.027991849929094315 -0.18032649159431458 0.983208417892456 
vn -0.04260294884443283 -0.18185682594776154 0.9824016690254211 
vn -0.04260294884443283 -0.18185682594776154 0.9824016690254211 
vn 3.097898456858039e-13 -0.999997615814209 0.002184694167226553 
vn 3.097898456858039e-13 -0.999997615814209 0.002184694167226553 
vn 3.097898456858039e-13 -0.999997615814209 0.002184694167226553 
vn 3.097898456858039e-13 -0.999997615814209 0.002184694167226553 
vn 3.097898456858039e-13 -0.999997615814209 0.002184694167226553 
vn 3.097898456858039e-13 -0.999997615814209 0.002184694167226553 
vn 3.097898456858039e-13 -0.999997615814209 0.002184694167226553 
vn 3.097898456858039e-13 -0.999997615814209 0.002184694167226553 
vn 3.097898456858039e-13 -0.999997615814209 0.002184694167226553 
vn 3.097898456858039e-13 -0.999997615814209 0.002184694167226553 
vn 0.0018949470249935985 -0.16526418924331665 -0.9862475395202637 
vn -0.017005911096930504 -0.09887514263391495 -0.994954526424408 
vn 0.0018949470249935985 -0.16526418924331665 -0.9862475395202637 
vn -0.017005911096930504 -0.09887514263391495 -0.994954526424408 
vn -0.021840007975697517 -0.037828002125024796 -0.9990455508232117 
vn -0.021840007975697517 -0.037828002125024796 -0.9990455508232117 
vn -0.0017888620495796204 -0.026152238249778748 0.9996563792228699 
vn -0.0017888620495796204 -0.026152238249778748 0.9996563792228699 
vn -0.008778315968811512 -0.02469981275498867 0.9996563792228699 
vn -0.008778315968811512 -0.02469981275498867 0.9996563792228699 
vn -0.003773920238018036 -0.9922492504119873 0.1242060661315918 
vn -0.003773920238018036 -0.9922492504119873 0.1242060661315918 
vn 0.003773920238018036 -0.9922492504119873 0.1242060661315918 
vn 0.003773920238018036 -0.9922492504119873 0.1242060661315918 
vn -0.001886497950181365 0.9836029410362244 0.18033768236637115 
vn -0.001886497950181365 0.9836029410362244 0.18033768236637115 
vn -0.001886497950181365 0.9836029410362244 0.18033768236637115 
vn -0.001886497950181365 0.9836029410362244 0.18033768236637115 
vn -0.9893063306808472 -2.046114064855123e-13 0.1458524912595749 
vn -0.9893063306808472 -2.046114064855123e-13 0.1458524912595749 
vn -0.9893063306808472 -2.046114064855123e-13 0.1458524912595749 
vn -0.9893063306808472 -2.046114064855123e-13 0.1458524912595749 
vn 0.009576811455190182 0.024401316419243813 -0.9996563792228699 
vn 0.009576811455190182 0.024401316419243813 -0.9996563792228699 
vn 0.001958925975486636 0.02614004909992218 -0.9996563792228699 
vn 0.001958925975486636 0.02614004909992218 -0.9996563792228699 
vn -0.0018869141349568963 0.9261600375175476 0.37712597846984863 
vn -0.0037741255946457386 0.910611629486084 0.41324591636657715 
vn -0.0018869141349568963 0.9261600375175476 0.37712597846984863 
vn -0.0037741255946457386 0.910611629486084 0.41324591636657715 
vn -0.007547071203589439 0.8936370611190796 0.4487268626689911 
vn -0.007547071203589439 0.8936370611190796 0.4487268626689911 
vn 0.0018949470249935985 -0.16526418924331665 -0.9862475395202637 
vn 0.0018949470249935985 -0.16526418924331665 -0.9862475395202637 
vn 0.01325214933604002 -0.09944784641265869 -0.994954526424408 
vn 0.01325214933604002 -0.09944784641265869 -0.994954526424408 
vn 0.021840007975697517 -0.037828002125024796 -0.9990455508232117 
vn 0.021840007975697517 -0.037828002125024796 -0.9990455508232117 
vt 0.4959671199321747 0.9011792540550232 
vt 0.496073454618454 0.9011792540550232 
vt 0.4961797595024109 0.8996027112007141 
vt 0.4961797595024109 0.8996027112007141 
vt 0.488844096660614 0.5046904683113098 
vt 0.488844096660614 0.5046904683113098 
vt 0.4889504015445709 0.5046904683113098 
vt 0.4889504015445709 0.5046904683113098 
vt 0.4886314570903778 0.5062669515609741 
vt 0.4886314570903778 0.5062669515609741 
vt 0.4887377917766571 0.5062669515609741 
vt 0.488844096660614 0.5062669515609741 
vt 0.488844096660614 0.5046904683113098 
vt 0.4886314570903778 0.5062669515609741 
vt 0.4889504015445709 0.5046904683113098 
vt 0.4887377917766571 0.5062669515609741 
vt 0.4886314570903778 0.5062669515609741 
vt 0.4886314570903778 0.5062669515609741 
vt 0.488844096660614 0.5046904683113098 
vt 0.488844096660614 0.5046904683113098 
vt 0.2785550057888031 0.09440740197896957 
vt 0.2785550057888031 0.09440740197896957 
vt 0.2785550057888031 0.09440740197896957 
vt 0.2785550057888031 0.09440740197896957 
vt 0.2785550057888031 0.09440740197896957 
vt 0.2785550057888031 0.09440740197896957 
vt 0.2785550057888031 0.09440740197896957 
vt 0.2785550057888031 0.09440740197896957 
vt 0.2785550057888031 0.09440740197896957 
vt 0.2785550057888031 0.09440740197896957 
vt 0.2785550057888031 0.09440740197896957 
vt 0.2785550057888031 0.09440740197896957 
vt 0.2785550057888031 0.09440740197896957 
vt 0.2785550057888031 0.09440740197896957 
vt 0.2785550057888031 0.09440740197896957 
vt 0.2785550057888031 0.09440740197896957 
vt 0.2785550057888031 0.09440740197896957 
vt 0.2785550057888031 0.09440740197896957 
vt 0.2785550057888031 0.09440740197896957 
vt 0.2785550057888031 0.09440740197896957 
vt 0.2785550057888031 0.09440740197896957 
vt 0.2785550057888031 0.09440740197896957 
vt 0.2785550057888031 0.09440740197896957 
vt 0.2785550057888031 0.09440740197896957 
vt 0.2785550057888031 0.09440740197896957 
vt 0.2785550057888031 0.09440740197896957 
vt 0.2785550057888031 0.09440740197896957 
vt 0.2785550057888031 0.09440740197896957 
vt 0.2785550057888031 0.09440740197896957 
vt 0.2785550057888031 0.09440740197896957 
vt 0.2785550057888031 0.09440740197896957 
vt 0.2785550057888031 0.09440740197896957 
vt 0.4961797595024109 0.8996027112007141 
vt 0.496073454618454 0.9011792540550232 
vt 0.4961797595024109 0.8996027112007141 
vt 0.4959671199321747 0.9011792540550232 
vt 0.4889504015445709 0.5046904683113098 
vt 0.488844096660614 0.5046904683113098 
vt 0.4889504015445709 0.5046904683113098 
vt 0.488844096660614 0.5046904683113098 
vt 0.488844096660614 0.5062669515609741 
vt 0.4886314570903778 0.5062669515609741 
vt 0.4887377917766571 0.5062669515609741 
vt 0.4886314570903778 0.5062669515609741 
vt 0.4887377917766571 0.5062669515609741 
vt 0.4886314570903778 0.5062669515609741 
vt 0.4889504015445709 0.5046904683113098 
vt 0.488844096660614 0.5046904683113098 
vt 0.488844096660614 0.5046904683113098 
vt 0.4886314570903778 0.5062669515609741 
vt 0.488844096660614 0.5046904683113098 
vt 0.4886314570903778 0.5062669515609741 
vt 0.2785550057888031 0.09440740197896957 
vt 0.2785550057888031 0.09440740197896957 
vt 0.2785550057888031 0.09440740197896957 
vt 0.2785550057888031 0.09440740197896957 
vt 0.2785550057888031 0.09440740197896957 
vt 0.2785550057888031 0.09440740197896957 
vt 0.2785550057888031 0.09440740197896957 
vt 0.2785550057888031 0.09440740197896957 
vt 0.2785550057888031 0.09440740197896957 
vt 0.2785550057888031 0.09440740197896957 
vt 0.2785550057888031 0.09440740197896957 
vt 0.2785550057888031 0.09440740197896957 
s on 
f 1/1/1 2/2/2 3/3/3 
f 2/2/2 4/4/4 3/3/3 
f 3/3/3 4/4/4 4/4/4 
f 4/4/4 5/5/5 4/4/4 
f 4/4/4 5/5/5 5/5/5 
f 5/5/5 6/6/6 5/5/5 
f 5/5/5 6/6/6 7/7/7 
f 6/6/6 8/8/8 7/7/7 
f 7/7/7 8/8/8 8/8/8 
f 8/8/8 9/9/9 8/8/8 
f 8/8/8 9/9/9 9/9/9 
f 9/9/9 10/10/10 9/9/9 
f 9/9/9 10/10/10 11/11/11 
f 10/10/10 12/12/12 11/11/11 
f 11/11/11 12/12/12 12/12/12 
f 12/12/12 13/13/13 12/12/12 
f 12/12/12 13/13/13 13/13/13 
f 13/13/13 14/14/14 13/13/13 
f 13/13/13 14/14/14 15/15/15 
f 14/14/14 16/16/16 15/15/15 
f 15/15/15 16/16/16 16/16/16 
f 16/16/16 17/17/17 16/16/16 
f 16/16/16 17/17/17 17/17/17 
f 17/17/17 18/18/18 17/17/17 
f 17/17/17 18/18/18 19/19/19 
f 18/18/18 20/20/20 19/19/19 
f 19/19/19 20/20/20 20/20/20 
f 20/20/20 21/21/21 20/20/20 
f 20/20/20 21/21/21 21/21/21 
f 21/21/21 22/22/22 21/21/21 
f 21/21/21 22/22/22 23/23/23 
f 22/22/22 24/24/24 23/23/23 
f 23/23/23 24/24/24 25/25/25 
f 24/24/24 26/26/26 25/25/25 
f 25/25/25 26/26/26 26/26/26 
f 26/26/26 27/27/27 26/26/26 
f 26/26/26 27/27/27 27/27/27 
f 27/27/27 28/28/28 27/27/27 
f 27/27/27 28/28/28 29/29/29 
f 28/28/28 30/30/30 29/29/29 
f 29/29/29 30/30/30 31/31/31 
f 30/30/30 32/32/32 31/31/31 
f 31/31/31 32/32/32 31/31/31 
f 32/32/32 33/33/33 31/31/31 
f 31/31/31 33/33/33 34/34/34 
f 33/33/33 35/35/35 34/34/34 
f 34/34/34 35/35/35 36/36/36 
f 35/35/35 36/36/36 36/36/36 
f 36/36/36 36/36/36 37/37/37 
f 36/36/36 37/37/37 37/37/37 
f 37/37/37 37/37/37 38/38/38 
f 37/37/37 39/39/39 38/38/38 
f 38/38/38 39/39/39 38/38/38 
f 39/39/39 40/40/40 38/38/38 
f 38/38/38 40/40/40 41/41/41 
f 40/40/40 42/42/42 41/41/41 
f 41/41/41 42/42/42 41/41/41 
f 42/42/42 43/43/43 41/41/41 
f 41/41/41 43/43/43 44/44/44 
f 43/43/43 45/45/45 44/44/44 
f 44/44/44 45/45/45 46/46/46 
f 45/45/45 46/46/46 46/46/46 
f 46/46/46 46/46/46 47/47/47 
f 46/46/46 47/47/47 47/47/47 
f 47/47/47 47/47/47 48/48/48 
f 47/47/47 49/49/49 48/48/48 
f 48/48/48 49/49/49 48/48/48 
f 49/49/49 50/50/50 48/48/48 
f 48/48/48 50/50/50 51/51/51 
f 50/50/50 52/52/52 51/51/51 
f 51/51/51 52/52/52 52/52/52 
f 52/52/52 53/53/53 52/52/52 
f 52/52/52 53/53/53 53/53/53 
f 53/53/53 54/54/54 53/53/53 
f 53/53/53 54/54/54 55/55/55 
f 54/54/54 56/56/56 55/55/55 
f 55/55/55 56/56/56 56/56/56 
f 56/56/56 57/57/57 56/56/56 
f 56/56/56 57/57/57 57/57/57 
f 57/57/57 58/58/58 57/57/57 
f 57/57/57 58/58/58 59/59/59 
f 58/58/58 60/60/60 59/59/59 
f 59/59/59 60/60/60 60/60/60 
f 60/60/60 61/61/61 60/60/60 
f 60/60/60 61/61/61 61/61/61 
f 61/61/61 62/62/62 61/61/61 
f 61/61/61 62/62/62 63/63/63 
f 62/62/62 64/64/64 63/63/63 
f 63/63/63 64/64/64 64/64/64 
f 64/64/64 65/65/65 64/64/64 
f 64/64/64 65/65/65 65/65/65 
f 65/65/65 66/66/66 65/65/65 
f 65/65/65 66/66/66 67/67/67 
f 66/66/66 68/68/68 67/67/67 
f 67/67/67 68/68/68 68/68/68 
f 68/68/68 69/69/69 68/68/68 
f 68/68/68 69/69/69 69/69/69 
f 69/69/69 70/70/70 69/69/69 
f 69/69/69 70/70/70 71/71/71 
f 70/70/70 72/72/72 71/71/71 
f 71/71/71 72/72/72 72/72/72 
f 72/72/72 73/73/73 72/72/72 
f 72/72/72 73/73/73 73/73/73 
f 73/73/73 74/74/74 73/73/73 
f 73/73/73 74/74/74 75/75/75 
f 74/74/74 74/74/74 75/75/75 
f 75/75/75 74/74/74 76/76/76 
f 74/74/74 77/77/77 76/76/76 
f 76/76/76 77/77/77 78/78/78 
f 77/77/77 78/78/78 78/78/78 
f 78/78/78 78/78/78 79/79/79 
f 78/78/78 79/79/79 79/79/79 
f 79/79/79 79/79/79 80/80/80 
f 79/79/79 81/81/81 80/80/80 
f 80/80/80 81/81/81 82/82/82 
f 81/81/81 83/83/83 82/82/82 
f 82/82/82 83/83/83 84/84/84 

