mtllib model_14.mtl
o model_14
v -0.029506469145417213 0.017271535471081734 -0.04227359965443611 
v -0.029506469145417213 0.022860607132315636 -0.019149156287312508 
v -0.01741795428097248 0.013234984129667282 -0.04227359965443611 
v -0.012582548893988132 0.016961032524704933 -0.019149156287312508 
v 0.012400382198393345 0.013234984129667282 -0.03963660076260567 
v 0.007564975880086422 0.016961032524704933 -0.016512157395482063 
v 0.024488896131515503 0.017271535471081734 -0.03963660076260567 
v 0.024488896131515503 0.022860607132315636 -0.016512157395482063 
v -0.01741795428097248 0.013234984129667282 -0.04227359965443611 
v -0.012582548893988132 0.016961032524704933 -0.019149156287312508 
v -0.011776648461818695 0.003298856085166335 -0.04227359965443611 
v -0.005329439882189035 0.003298856085166335 -0.019149156287312508 
v 0.006759074982255697 0.003298856085166335 -0.03963660076260567 
v 0.0003118670138064772 0.003298856085166335 -0.016512157395482063 
v 0.012400382198393345 0.013234984129667282 -0.03963660076260567 
v 0.007564975880086422 0.016961032524704933 -0.016512157395482063 
v -0.011776648461818695 0.003298856085166335 -0.04227359965443611 
v -0.005329439882189035 0.003298856085166335 -0.019149156287312508 
v -0.01741795428097248 -0.006947775837033987 -0.04227359965443611 
v -0.012582548893988132 -0.01067382376641035 -0.019149156287312508 
v 0.012400382198393345 -0.006947775837033987 -0.03963660076260567 
v 0.007564975880086422 -0.01067382376641035 -0.016512157395482063 
v 0.006759074982255697 0.003298856085166335 -0.03963660076260567 
v 0.0003118670138064772 0.003298856085166335 -0.016512157395482063 
v -0.01741795428097248 -0.006947775837033987 -0.04227359965443611 
v -0.012582548893988132 -0.01067382376641035 -0.019149156287312508 
v -0.029506469145417213 -0.010984327644109726 -0.04227359965443611 
v -0.029506469145417213 -0.016573399305343628 -0.019149156287312508 
v 0.024488896131515503 -0.010984327644109726 -0.03963660076260567 
v 0.024488896131515503 -0.016573399305343628 -0.016512157395482063 
v 0.012400382198393345 -0.006947775837033987 -0.03963660076260567 
v 0.007564975880086422 -0.01067382376641035 -0.016512157395482063 
v -0.029506469145417213 -0.010984327644109726 -0.04227359965443611 
v -0.029506469145417213 -0.016573399305343628 -0.019149156287312508 
v -0.041594985872507095 -0.006947775837033987 -0.04227359965443611 
v -0.04643039032816887 -0.01067382376641035 -0.019149156287312508 
v 0.036577410995960236 -0.006947775837033987 -0.03963660076260567 
v 0.04141281917691231 -0.01067382376641035 -0.016512157395482063 
v 0.024488896131515503 -0.010984327644109726 -0.03963660076260567 
v 0.024488896131515503 -0.016573399305343628 -0.016512157395482063 
v -0.041594985872507095 -0.006947775837033987 -0.04227359965443611 
v -0.04643039032816887 -0.01067382376641035 -0.019149156287312508 
v -0.04643039032816887 0.003298856085166335 -0.04227359965443611 
v -0.05368350073695183 0.003298856085166335 -0.019149156287312508 
v 0.04141281917691231 0.003298856085166335 -0.03963660076260567 
v 0.04866592586040497 0.003298856085166335 -0.016512157395482063 
v 0.036577410995960236 -0.006947775837033987 -0.03963660076260567 
v 0.04141281917691231 -0.01067382376641035 -0.016512157395482063 
v -0.041594985872507095 0.013234984129667282 -0.04227359965443611 
v -0.04643039032816887 0.016961032524704933 -0.019149156287312508 
v -0.029506469145417213 0.017271535471081734 -0.04227359965443611 
v -0.029506469145417213 0.022860607132315636 -0.019149156287312508 
v -0.04643039032816887 0.003298856085166335 -0.04227359965443611 
v -0.05368350073695183 0.003298856085166335 -0.019149156287312508 
v -0.041594985872507095 0.013234984129667282 -0.04227359965443611 
v -0.04643039032816887 0.016961032524704933 -0.019149156287312508 
v 0.036577410995960236 0.013234984129667282 -0.03963660076260567 
v 0.04141281917691231 0.016961032524704933 -0.016512157395482063 
v 0.04141281917691231 0.003298856085166335 -0.03963660076260567 
v 0.04866592586040497 0.003298856085166335 -0.016512157395482063 
v 0.024488896131515503 0.017271535471081734 -0.03963660076260567 
v 0.024488896131515503 0.022860607132315636 -0.016512157395482063 
v 0.036577410995960236 0.013234984129667282 -0.03963660076260567 
v 0.04141281917691231 0.016961032524704933 -0.016512157395482063 
v -0.04643039032816887 0.003298856085166335 -0.04227359965443611 
v -0.041594985872507095 0.013234984129667282 -0.04227359965443611 
v -0.041594985872507095 -0.006947775837033987 -0.04227359965443611 
v -0.029506469145417213 0.017271535471081734 -0.04227359965443611 
v -0.029506469145417213 -0.010984327644109726 -0.04227359965443611 
v -0.01741795428097248 0.013234984129667282 -0.04227359965443611 
v -0.01741795428097248 -0.006947775837033987 -0.04227359965443611 
v -0.011776648461818695 0.003298856085166335 -0.04227359965443611 
v 0.006759074982255697 0.003298856085166335 -0.03963660076260567 
v 0.012400382198393345 0.013234984129667282 -0.03963660076260567 
v 0.012400382198393345 -0.006947775837033987 -0.03963660076260567 
v 0.024488896131515503 0.017271535471081734 -0.03963660076260567 
v 0.024488896131515503 -0.010984327644109726 -0.03963660076260567 
v 0.036577410995960236 0.013234984129667282 -0.03963660076260567 
v 0.036577410995960236 -0.006947775837033987 -0.03963660076260567 
v 0.04141281917691231 0.003298856085166335 -0.03963660076260567 
vn 0.3098321855068207 0.9242387413978577 -0.22312943637371063 
vn 0.3098321855068207 0.9242387413978577 -0.22312943637371063 
vn 0.3098321855068207 0.9242387413978577 -0.22312943637371063 
vn 0.3098321855068207 0.9242387413978577 -0.22312943637371063 
vn -0.31341010332107544 0.9230316281318665 -0.22312943637371063 
vn -0.31341010332107544 0.9230316281318665 -0.22312943637371063 
vn -0.31341010332107544 0.9230316281318665 -0.22312943637371063 
vn -0.31341010332107544 0.9230316281318665 -0.22312943637371063 
vn 0.8620908856391907 0.43671441078186035 -0.25706008076667786 
vn 0.8620908856391907 0.43671441078186035 -0.25706008076667786 
vn 0.8620908856391907 0.43671441078186035 -0.25706008076667786 
vn 0.8620908856391907 0.43671441078186035 -0.25706008076667786 
vn -0.8620908856391907 0.43671441078186035 -0.25706008076667786 
vn -0.8620908856391907 0.43671441078186035 -0.25706008076667786 
vn -0.8620908856391907 0.43671441078186035 -0.25706008076667786 
vn -0.8620908856391907 0.43671441078186035 -0.25706008076667786 
vn 0.8620908856391907 -0.43671441078186035 -0.25706008076667786 
vn 0.8620908856391907 -0.43671441078186035 -0.25706008076667786 
vn 0.8620908856391907 -0.43671441078186035 -0.25706008076667786 
vn 0.8620908856391907 -0.43671441078186035 -0.25706008076667786 
vn -0.8620908856391907 -0.43671441078186035 -0.25706008076667786 
vn -0.8620908856391907 -0.43671441078186035 -0.25706008076667786 
vn -0.8620908856391907 -0.43671441078186035 -0.25706008076667786 
vn -0.8620908856391907 -0.43671441078186035 -0.25706008076667786 
vn 0.3098321855068207 -0.9242387413978577 -0.22312943637371063 
vn 0.3098321855068207 -0.9242387413978577 -0.22312943637371063 
vn 0.3098321855068207 -0.9242387413978577 -0.22312943637371063 
vn 0.3098321855068207 -0.9242387413978577 -0.22312943637371063 
vn -0.31341010332107544 -0.9230316281318665 -0.22312943637371063 
vn -0.31341010332107544 -0.9230316281318665 -0.22312943637371063 
vn -0.31341010332107544 -0.9230316281318665 -0.22312943637371063 
vn -0.31341010332107544 -0.9230316281318665 -0.22312943637371063 
vn -0.31341010332107544 -0.9230316281318665 -0.22312943637371063 
vn -0.31341010332107544 -0.9230316281318665 -0.22312943637371063 
vn -0.31341010332107544 -0.9230316281318665 -0.22312943637371063 
vn -0.31341010332107544 -0.9230316281318665 -0.22312943637371063 
vn 0.3098321855068207 -0.9242387413978577 -0.22312943637371063 
vn 0.3098321855068207 -0.9242387413978577 -0.22312943637371063 
vn 0.3098321855068207 -0.9242387413978577 -0.22312943637371063 
vn 0.3098321855068207 -0.9242387413978577 -0.22312943637371063 
vn -0.8620908856391907 -0.43671441078186035 -0.25706008076667786 
vn -0.8620908856391907 -0.43671441078186035 -0.25706008076667786 
vn -0.8620908856391907 -0.43671441078186035 -0.25706008076667786 
vn -0.8620908856391907 -0.43671441078186035 -0.25706008076667786 
vn 0.8620908856391907 -0.43671441078186035 -0.25706008076667786 
vn 0.8620908856391907 -0.43671441078186035 -0.25706008076667786 
vn 0.8620908856391907 -0.43671441078186035 -0.25706008076667786 
vn 0.8620908856391907 -0.43671441078186035 -0.25706008076667786 
vn -0.31341010332107544 0.9230316281318665 -0.22312943637371063 
vn -0.31341010332107544 0.9230316281318665 -0.22312943637371063 
vn -0.31341010332107544 0.9230316281318665 -0.22312943637371063 
vn -0.31341010332107544 0.9230316281318665 -0.22312943637371063 
vn -0.8620908856391907 0.43671441078186035 -0.25706008076667786 
vn -0.8620908856391907 0.43671441078186035 -0.25706008076667786 
vn -0.8620908856391907 0.43671441078186035 -0.25706008076667786 
vn -0.8620908856391907 0.43671441078186035 -0.25706008076667786 
vn 0.8620908856391907 0.43671441078186035 -0.25706008076667786 
vn 0.8620908856391907 0.43671441078186035 -0.25706008076667786 
vn 0.8620908856391907 0.43671441078186035 -0.25706008076667786 
vn 0.8620908856391907 0.43671441078186035 -0.25706008076667786 
vn 0.3098321855068207 0.9242387413978577 -0.22312943637371063 
vn 0.3098321855068207 0.9242387413978577 -0.22312943637371063 
vn 0.3098321855068207 0.9242387413978577 -0.22312943637371063 
vn 0.3098321855068207 0.9242387413978577 -0.22312943637371063 
vn -2.0682311115474694e-13 0 -1 
vn -2.0682311115474694e-13 0 -1 
vn -2.0682311115474694e-13 0 -1 
vn -2.0682311115474694e-13 0 -1 
vn -2.0682311115474694e-13 0 -1 
vn -2.0682311115474694e-13 0 -1 
vn -2.0682311115474694e-13 0 -1 
vn -2.0682311115474694e-13 0 -1 
vn -2.0682311115474694e-13 0 -1 
vn -2.0682311115474694e-13 0 -1 
vn -2.0682311115474694e-13 0 -1 
vn -2.0682311115474694e-13 0 -1 
vn -2.0682311115474694e-13 0 -1 
vn -2.0682311115474694e-13 0 -1 
vn -2.0682311115474694e-13 0 -1 
vn -2.0682311115474694e-13 0 -1 
vt 0.2900570034980774 0.28150853514671326 
vt 0.2900570034980774 0.28831133246421814 
vt 0.2917748987674713 0.28150853514671326 
vt 0.2917748987674713 0.28831133246421814 
vt 0.3019748628139496 0.28150853514671326 
vt 0.3019748628139496 0.28831133246421814 
vt 0.3036927282810211 0.28150853514671326 
vt 0.3036927282810211 0.28831133246421814 
vt 0.2917748987674713 0.28150853514671326 
vt 0.2917748987674713 0.28831133246421814 
vt 0.29349276423454285 0.28150853514671326 
vt 0.29349276423454285 0.28831133246421814 
vt 0.30025696754455566 0.28150853514671326 
vt 0.30025696754455566 0.28831133246421814 
vt 0.3019748628139496 0.28150853514671326 
vt 0.3019748628139496 0.28831133246421814 
vt 0.29349276423454285 0.28150853514671326 
vt 0.29349276423454285 0.28831133246421814 
vt 0.29521065950393677 0.28150853514671326 
vt 0.29521065950393677 0.28831133246421814 
vt 0.29853907227516174 0.28150853514671326 
vt 0.29853907227516174 0.28831133246421814 
vt 0.30025696754455566 0.28150853514671326 
vt 0.30025696754455566 0.28831133246421814 
vt 0.29521065950393677 0.28150853514671326 
vt 0.29521065950393677 0.28831133246421814 
vt 0.2969285547733307 0.28150853514671326 
vt 0.2969285547733307 0.28831133246421814 
vt 0.2969285547733307 0.28150853514671326 
vt 0.2969285547733307 0.28831133246421814 
vt 0.29853907227516174 0.28150853514671326 
vt 0.29853907227516174 0.28831133246421814 
vt 0.2969285547733307 0.28150853514671326 
vt 0.2969285547733307 0.28831133246421814 
vt 0.29853907227516174 0.28150853514671326 
vt 0.29853907227516174 0.28831133246421814 
vt 0.29521065950393677 0.28150853514671326 
vt 0.29521065950393677 0.28831133246421814 
vt 0.2969285547733307 0.28150853514671326 
vt 0.2969285547733307 0.28831133246421814 
vt 0.29853907227516174 0.28150853514671326 
vt 0.29853907227516174 0.28831133246421814 
vt 0.30025696754455566 0.28150853514671326 
vt 0.30025696754455566 0.28831133246421814 
vt 0.29349276423454285 0.28150853514671326 
vt 0.29349276423454285 0.28831133246421814 
vt 0.29521065950393677 0.28150853514671326 
vt 0.29521065950393677 0.28831133246421814 
vt 0.3019748628139496 0.28150853514671326 
vt 0.3019748628139496 0.28831133246421814 
vt 0.3036927282810211 0.28150853514671326 
vt 0.3036927282810211 0.28831133246421814 
vt 0.30025696754455566 0.28150853514671326 
vt 0.30025696754455566 0.28831133246421814 
vt 0.3019748628139496 0.28150853514671326 
vt 0.3019748628139496 0.28831133246421814 
vt 0.2917748987674713 0.28150853514671326 
vt 0.2917748987674713 0.28831133246421814 
vt 0.29349276423454285 0.28150853514671326 
vt 0.29349276423454285 0.28831133246421814 
vt 0.2900570034980774 0.28150853514671326 
vt 0.2900570034980774 0.28831133246421814 
vt 0.2917748987674713 0.28150853514671326 
vt 0.2917748987674713 0.28831133246421814 
vt 0.30358538031578064 0.2781071066856384 
vt 0.302619069814682 0.28044557571411133 
vt 0.302619069814682 0.2757686376571655 
vt 0.30025696754455566 0.28140223026275635 
vt 0.30025696754455566 0.2748120129108429 
vt 0.2980022430419922 0.28044557571411133 
vt 0.2980022430419922 0.2757686376571655 
vt 0.29703593254089355 0.2781071066856384 
vt 0.30358538031578064 0.2781071066856384 
vt 0.302619069814682 0.28044557571411133 
vt 0.302619069814682 0.2757686376571655 
vt 0.30025696754455566 0.28140223026275635 
vt 0.30025696754455566 0.2748120129108429 
vt 0.2980022430419922 0.28044557571411133 
vt 0.2980022430419922 0.2757686376571655 
vt 0.29703593254089355 0.2781071066856384 
s on 
f 1/1/1 2/2/2 3/3/3 
f 2/2/2 4/4/4 3/3/3 
f 3/3/3 4/4/4 4/4/4 
f 4/4/4 5/5/5 4/4/4 
f 4/4/4 5/5/5 5/5/5 
f 5/5/5 6/6/6 5/5/5 
f 5/5/5 6/6/6 7/7/7 
f 6/6/6 8/8/8 7/7/7 
f 7/7/7 8/8/8 8/8/8 
f 8/8/8 9/9/9 8/8/8 
f 8/8/8 9/9/9 9/9/9 
f 9/9/9 10/10/10 9/9/9 
f 9/9/9 10/10/10 11/11/11 
f 10/10/10 12/12/12 11/11/11 
f 11/11/11 12/12/12 12/12/12 
f 12/12/12 13/13/13 12/12/12 
f 12/12/12 13/13/13 13/13/13 
f 13/13/13 14/14/14 13/13/13 
f 13/13/13 14/14/14 15/15/15 
f 14/14/14 16/16/16 15/15/15 
f 15/15/15 16/16/16 16/16/16 
f 16/16/16 17/17/17 16/16/16 
f 16/16/16 17/17/17 17/17/17 
f 17/17/17 18/18/18 17/17/17 
f 17/17/17 18/18/18 19/19/19 
f 18/18/18 20/20/20 19/19/19 
f 19/19/19 20/20/20 20/20/20 
f 20/20/20 21/21/21 20/20/20 
f 20/20/20 21/21/21 21/21/21 
f 21/21/21 22/22/22 21/21/21 
f 21/21/21 22/22/22 23/23/23 
f 22/22/22 24/24/24 23/23/23 
f 23/23/23 24/24/24 24/24/24 
f 24/24/24 25/25/25 24/24/24 
f 24/24/24 25/25/25 25/25/25 
f 25/25/25 26/26/26 25/25/25 
f 25/25/25 26/26/26 27/27/27 
f 26/26/26 28/28/28 27/27/27 
f 27/27/27 28/28/28 28/28/28 
f 28/28/28 29/29/29 28/28/28 
f 28/28/28 29/29/29 29/29/29 
f 29/29/29 30/30/30 29/29/29 
f 29/29/29 30/30/30 31/31/31 
f 30/30/30 32/32/32 31/31/31 
f 31/31/31 32/32/32 32/32/32 
f 32/32/32 33/33/33 32/32/32 
f 32/32/32 33/33/33 33/33/33 
f 33/33/33 34/34/34 33/33/33 
f 33/33/33 34/34/34 35/35/35 
f 34/34/34 36/36/36 35/35/35 
f 35/35/35 36/36/36 36/36/36 
f 36/36/36 37/37/37 36/36/36 
f 36/36/36 37/37/37 37/37/37 
f 37/37/37 38/38/38 37/37/37 
f 37/37/37 38/38/38 39/39/39 
f 38/38/38 40/40/40 39/39/39 
f 39/39/39 40/40/40 40/40/40 
f 40/40/40 41/41/41 40/40/40 
f 40/40/40 41/41/41 41/41/41 
f 41/41/41 42/42/42 41/41/41 
f 41/41/41 42/42/42 43/43/43 
f 42/42/42 44/44/44 43/43/43 
f 43/43/43 44/44/44 44/44/44 
f 44/44/44 45/45/45 44/44/44 
f 44/44/44 45/45/45 45/45/45 
f 45/45/45 46/46/46 45/45/45 
f 45/45/45 46/46/46 47/47/47 
f 46/46/46 48/48/48 47/47/47 
f 47/47/47 48/48/48 48/48/48 
f 48/48/48 49/49/49 48/48/48 
f 48/48/48 49/49/49 49/49/49 
f 49/49/49 50/50/50 49/49/49 
f 49/49/49 50/50/50 51/51/51 
f 50/50/50 52/52/52 51/51/51 
f 51/51/51 52/52/52 52/52/52 
f 52/52/52 53/53/53 52/52/52 
f 52/52/52 53/53/53 53/53/53 
f 53/53/53 54/54/54 53/53/53 
f 53/53/53 54/54/54 55/55/55 
f 54/54/54 56/56/56 55/55/55 
f 55/55/55 56/56/56 56/56/56 
f 56/56/56 57/57/57 56/56/56 
f 56/56/56 57/57/57 57/57/57 
f 57/57/57 58/58/58 57/57/57 
f 57/57/57 58/58/58 59/59/59 
f 58/58/58 60/60/60 59/59/59 
f 59/59/59 60/60/60 60/60/60 
f 60/60/60 61/61/61 60/60/60 
f 60/60/60 61/61/61 61/61/61 
f 61/61/61 62/62/62 61/61/61 
f 61/61/61 62/62/62 63/63/63 
f 62/62/62 64/64/64 63/63/63 
f 63/63/63 64/64/64 64/64/64 
f 64/64/64 65/65/65 64/64/64 
f 64/64/64 65/65/65 65/65/65 
f 65/65/65 66/66/66 65/65/65 
f 65/65/65 66/66/66 67/67/67 
f 66/66/66 68/68/68 67/67/67 
f 67/67/67 68/68/68 69/69/69 
f 68/68/68 70/70/70 69/69/69 
f 69/69/69 70/70/70 71/71/71 
f 70/70/70 72/72/72 71/71/71 
f 71/71/71 72/72/72 72/72/72 
f 72/72/72 73/73/73 72/72/72 
f 72/72/72 73/73/73 73/73/73 
f 73/73/73 74/74/74 73/73/73 
f 73/73/73 74/74/74 75/75/75 
f 74/74/74 76/76/76 75/75/75 
f 75/75/75 76/76/76 77/77/77 
f 76/76/76 78/78/78 77/77/77 
f 77/77/77 78/78/78 79/79/79 
f 78/78/78 80/80/80 79/79/79 

