mtllib model_45.mtl
o model_45
v -0.09769269824028015 -0.03983839973807335 0.03580646589398384 
v -0.09316351264715195 -0.007596550043672323 0.027233319357037544 
v -0.062968909740448 -0.019848452880978584 -0.011958199553191662 
v -0.062968909740448 -0.019848452880978584 -0.011958199553191662 
v -0.06145917996764183 0.007879538461565971 -0.017673630267381668 
v -0.08561486005783081 0.027224648743867874 0.01457772497087717 
v 0.08800408989191055 -0.03983839973807335 0.015394214540719986 
v 0.08951382339000702 -0.007596550043672323 0.0068210698664188385 
v 0.06384841352701187 -0.019848452880978584 -0.0193066094070673 
v 0.09404300898313522 0.042055897414684296 -0.010733464732766151 
v 0.06535813957452774 0.024000462144613266 -0.02828799933195114 
v -0.047871608287096024 0.023355625569820404 -0.02093959040939808 
v 0.06535813957452774 0.024000462144613266 -0.02828799933195114 
v -0.06145917996764183 0.007879538461565971 -0.017673630267381668 
v 0.06384841352701187 -0.019848452880978584 -0.0193066094070673 
v -0.062968909740448 -0.019848452880978584 -0.011958199553191662 
v 0.09404300898313522 0.042055897414684296 -0.010733464732766151 
v -0.07051756232976913 0.041411060839891434 0.007637559901922941 
v 0.06535813957452774 0.024000462144613266 -0.02828799933195114 
v -0.047871608287096024 0.023355625569820404 -0.02093959040939808 
v -0.08561486005783081 0.027224648743867874 0.01457772497087717 
v -0.047871608287096024 0.023355625569820404 -0.02093959040939808 
v -0.06145917996764183 0.007879538461565971 -0.017673630267381668 
v -0.09769269824028015 -0.03983839973807335 0.03580646589398384 
v 0.08800408989191055 -0.03983839973807335 0.015394214540719986 
v -0.062968909740448 -0.019848452880978584 -0.011958199553191662 
v 0.06384841352701187 -0.019848452880978584 -0.0193066094070673 
vn -0.7986866235733032 -0.03397887200117111 -0.6007870435714722 
vn -0.8052256107330322 -0.05664362013339996 -0.590256929397583 
vn -0.8095020651817322 -0.06787475943565369 -0.5831804275512695 
vn -0.8095020651817322 -0.06787475943565369 -0.5831804275512695 
vn -0.8139209747314453 -0.07542088627815247 -0.5760593414306641 
vn -0.8139209747314453 -0.07542088627815247 -0.5760593414306641 
vn 0.9752309322357178 -0.1280740648508072 -0.18033768236637115 
vn 0.951066792011261 -0.1429864913225174 -0.27391019463539124 
vn 0.7042614221572876 -0.23041783273220062 -0.6715083718299866 
vn 0.94608074426651 -0.14296244084835052 -0.29067665338516235 
vn 0.6823776960372925 -0.2300572395324707 -0.6938546895980835 
vn -0.06265272945165634 -0.13885270059108734 -0.9883291721343994 
vn -0.057946979999542236 -0.1955145001411438 -0.9789873361587524 
vn -0.05602934956550598 -0.18715105950832367 -0.9807319641113281 
vn -0.05053034424781799 -0.20197156071662903 -0.9780870079994202 
vn -0.05053034424781799 -0.20197156071662903 -0.9780870079994202 
vn -0.03209000825881958 0.9550031423568726 -0.2948545813560486 
vn -0.4469055235385895 0.8093118071556091 -0.3811691105365753 
vn -0.06042223423719406 0.7918265461921692 -0.607749879360199 
vn -0.06042223423719406 0.7918265461921692 -0.607749879360199 
vn -0.8369874358177185 0.5391222834587097 -0.09380380809307098 
vn -0.6096670627593994 0.3832384943962097 -0.6938546895980835 
vn -0.6096670627593994 0.3832384943962097 -0.6938546895980835 
vn 0.01886850968003273 -0.9920770525932312 0.1242060661315918 
vn 0.013208339922130108 -0.9981734156608582 0.058952588587999344 
vn -0.039622239768505096 -0.8966811299324036 -0.4409002661705017 
vn -0.039622239768505096 -0.8966811299324036 -0.4409002661705017 
vt 0.2835119962692261 0.2852250039577484 
vt 0.2835119962692261 0.2852250039577484 
vt 0.2835119962692261 0.2852250039577484 
vt 0.2835119962692261 0.2852250039577484 
vt 0.2835119962692261 0.2852250039577484 
vt 0.2835119962692261 0.2852250039577484 
vt 0.2835119962692261 0.2852250039577484 
vt 0.2835119962692261 0.2852250039577484 
vt 0.2835119962692261 0.2852250039577484 
vt 0.2835119962692261 0.2852250039577484 
vt 0.2835119962692261 0.2852250039577484 
vt 0.2835119962692261 0.2852250039577484 
vt 0.2835119962692261 0.2852250039577484 
vt 0.2835119962692261 0.2852250039577484 
vt 0.2835119962692261 0.2852250039577484 
vt 0.2835119962692261 0.2852250039577484 
vt 0.2835119962692261 0.2852250039577484 
vt 0.2835119962692261 0.2852250039577484 
vt 0.2835119962692261 0.2852250039577484 
vt 0.2835119962692261 0.2852250039577484 
vt 0.2835119962692261 0.2852250039577484 
vt 0.2835119962692261 0.2852250039577484 
vt 0.2835119962692261 0.2852250039577484 
vt 0.2835119962692261 0.2852250039577484 
vt 0.2835119962692261 0.2852250039577484 
vt 0.2835119962692261 0.2852250039577484 
vt 0.2835119962692261 0.2852250039577484 
s on 
f 1/1/1 2/2/2 3/3/3 
f 2/2/2 3/3/3 3/3/3 
f 3/3/3 3/3/3 4/4/4 
f 3/3/3 4/4/4 4/4/4 
f 4/4/4 4/4/4 5/5/5 
f 4/4/4 2/2/2 5/5/5 
f 5/5/5 2/2/2 6/6/6 
f 2/2/2 6/6/6 6/6/6 
f 6/6/6 6/6/6 7/7/7 
f 6/6/6 7/7/7 7/7/7 
f 7/7/7 7/7/7 8/8/8 
f 7/7/7 9/9/9 8/8/8 
f 8/8/8 9/9/9 10/10/10 
f 9/9/9 11/11/11 10/10/10 
f 10/10/10 11/11/11 11/11/11 
f 11/11/11 12/12/12 11/11/11 
f 11/11/11 12/12/12 12/12/12 
f 12/12/12 13/13/13 12/12/12 
f 12/12/12 13/13/13 14/14/14 
f 13/13/13 15/15/15 14/14/14 
f 14/14/14 15/15/15 16/16/16 
f 15/15/15 16/16/16 16/16/16 
f 16/16/16 16/16/16 17/17/17 
f 16/16/16 17/17/17 17/17/17 
f 17/17/17 17/17/17 18/18/18 
f 17/17/17 19/19/19 18/18/18 
f 18/18/18 19/19/19 20/20/20 
f 19/19/19 20/20/20 20/20/20 
f 20/20/20 20/20/20 18/18/18 
f 20/20/20 18/18/18 18/18/18 
f 18/18/18 18/18/18 21/21/21 
f 18/18/18 22/22/22 21/21/21 
f 21/21/21 22/22/22 23/23/23 
f 22/22/22 23/23/23 23/23/23 
f 23/23/23 23/23/23 24/24/24 
f 23/23/23 24/24/24 24/24/24 
f 24/24/24 24/24/24 25/25/25 
f 24/24/24 26/26/26 25/25/25 
f 25/25/25 26/26/26 27/27/27 

