mtllib model_46.mtl
o model_46
v -0.012132074683904648 0.04674752429127693 0.00702631613239646 
v 0.0021495139226317406 0.04739522561430931 0.0034212039317935705 
v -0.01941859908401966 0.027964197099208832 -0.02026953175663948 
v 0.0038982799742370844 0.04545212537050247 -0.006364100147038698 
v 0.007687272969633341 0.0383274145424366 -0.022329596802592278 
v -0.01941859908401966 0.027964197099208832 -0.02026953175663948 
v 0.010893343947827816 0.024077991023659706 -0.02850978821516037 
v -0.01941859908401966 0.027964197099208832 -0.02026953175663948 
v -0.018835678696632385 0.005294661968946457 -0.018209468573331833 
v 0.014390875585377216 -0.0024777499493211508 -0.030569851398468018 
v -0.017669834196567535 -0.019317975267767906 -0.01717943511903286 
v 0.01759694702923298 -0.03421510010957718 -0.0321149006485939 
v 0.007104351185262203 -0.03486280143260956 0.028656987473368645 
v -0.018835678696632385 -0.03486280143260956 0.03329213336110115 
v -0.017669834196567535 -0.019317975267767906 -0.01717943511903286 
v 0.01759694702923298 -0.03421510010957718 -0.0321149006485939 
v -0.017669834196567535 -0.019317975267767906 -0.01717943511903286 
v -0.017669834196567535 -0.019317975267767906 -0.01717943511903286 
v -0.018835678696632385 -0.03486280143260956 0.03329213336110115 
v -0.018835678696632385 0.005294661968946457 -0.018209468573331833 
v -0.016212528571486473 -0.0024777499493211508 0.02505187690258026 
v -0.01941859908401966 0.027964197099208832 -0.02026953175663948 
v -0.012132074683904648 0.04674752429127693 0.00702631613239646 
vn -0.10740137100219727 0.9399622678756714 -0.3239381015300751 
vn -0.052826281636953354 0.9743234515190125 -0.21886809170246124 
vn -0.29486215114593506 0.731602132320404 -0.6146662831306458 
vn -0.13367865979671478 0.9394093155860901 -0.31565824151039124 
vn 0.00943888258188963 0.7078158259391785 -0.7063339352607727 
vn -0.29486215114593506 0.731602132320404 -0.6146662831306458 
vn 0.0723581314086914 0.21780891716480255 -0.9733054637908936 
vn -0.3044344186782837 -0.022633900865912437 -0.9522643685340881 
vn -0.3334849774837494 -0.022646382451057434 -0.9424833655357361 
vn 0.03911028429865837 0.05253422632813454 -0.9978529810905457 
vn -0.3703531324863434 -0.022693898528814316 -0.9286137819290161 
vn 0.06571978330612183 0.043056242167949677 -0.9969087839126587 
vn 0.1149214580655098 -0.9850230813026428 0.12854042649269104 
vn 0.026431526988744736 -0.9973573088645935 0.06767380982637405 
vn -0.3241679072380066 -0.9366216659545898 -0.1328723281621933 
vn 0.0377483032643795 -0.9992275834083557 0.010923261754214764 
vn -0.3241679072380066 -0.9366216659545898 -0.1328723281621933 
vn -0.9992551803588867 0.03019430674612522 0.024029340595006943 
vn -0.9560881853103638 0.12412768602371216 0.26549527049064636 
vn -0.994305431842804 0.06414539366960526 0.08510008454322815 
vn -0.9557286500930786 0.1353345811367035 0.2612801790237427 
vn -0.9885350465774536 0.07921992242336273 0.12854042649269104 
vn -0.9411704540252686 0.1651027649641037 0.2948545813560486 
vt 0.28315499424934387 0.27487099170684814 
vt 0.28315499424934387 0.27487099170684814 
vt 0.28315499424934387 0.27487099170684814 
vt 0.28315499424934387 0.27487099170684814 
vt 0.28315499424934387 0.27487099170684814 
vt 0.28315499424934387 0.27487099170684814 
vt 0.28315499424934387 0.27487099170684814 
vt 0.28315499424934387 0.27487099170684814 
vt 0.28315499424934387 0.27487099170684814 
vt 0.28315499424934387 0.27487099170684814 
vt 0.28315499424934387 0.27487099170684814 
vt 0.28315499424934387 0.27487099170684814 
vt 0.28315499424934387 0.27487099170684814 
vt 0.28315499424934387 0.27487099170684814 
vt 0.28315499424934387 0.27487099170684814 
vt 0.28315499424934387 0.27487099170684814 
vt 0.28315499424934387 0.27487099170684814 
vt 0.28315499424934387 0.27487099170684814 
vt 0.28315499424934387 0.27487099170684814 
vt 0.28315499424934387 0.27487099170684814 
vt 0.28315499424934387 0.27487099170684814 
vt 0.28315499424934387 0.27487099170684814 
vt 0.28315499424934387 0.27487099170684814 
s on 
f 1/1/1 2/2/2 3/3/3 
f 2/2/2 4/4/4 3/3/3 
f 3/3/3 4/4/4 5/5/5 
f 4/4/4 5/5/5 5/5/5 
f 5/5/5 5/5/5 5/5/5 
f 5/5/5 5/5/5 5/5/5 
f 5/5/5 5/5/5 6/6/6 
f 5/5/5 7/7/7 6/6/6 
f 6/6/6 7/7/7 7/7/7 
f 7/7/7 8/8/8 7/7/7 
f 7/7/7 8/8/8 8/8/8 
f 8/8/8 7/7/7 8/8/8 
f 8/8/8 7/7/7 9/9/9 
f 7/7/7 10/10/10 9/9/9 
f 9/9/9 10/10/10 11/11/11 
f 10/10/10 12/12/12 11/11/11 
f 11/11/11 12/12/12 12/12/12 
f 12/12/12 13/13/13 12/12/12 
f 12/12/12 13/13/13 13/13/13 
f 13/13/13 14/14/14 13/13/13 
f 13/13/13 14/14/14 15/15/15 
f 14/14/14 15/15/15 15/15/15 
f 15/15/15 15/15/15 16/16/16 
f 15/15/15 16/16/16 16/16/16 
f 16/16/16 16/16/16 17/17/17 
f 16/16/16 13/13/13 17/17/17 
f 17/17/17 13/13/13 13/13/13 
f 13/13/13 18/18/18 13/13/13 
f 13/13/13 18/18/18 18/18/18 
f 18/18/18 19/19/19 18/18/18 
f 18/18/18 19/19/19 20/20/20 
f 19/19/19 21/21/21 20/20/20 
f 20/20/20 21/21/21 22/22/22 
f 21/21/21 23/23/23 22/22/22 

