{
  "accessors": [
    {
      "bufferView": 0,
      "componentType": 5126,
      "count": 28655,
      "max": [
        9.33144474029541,
        -4.013556480407715,
        15.841371536254883
      ],
      "min": [
        -8.845669746398926,
        -21.70240020751953,
        -13.573200225830078
      ],
      "type": "VEC3"
    },
    {
      "bufferView": 1,
      "componentType": 5125,
      "count": 84491,
      "type": "SCALAR"
    },
    {
      "bufferView": 2,
      "componentType": 5126,
      "count": 28655,
      "type": "VEC3"
    },
    {
      "bufferView": 3,
      "componentType": 5126,
      "count": 28655,
      "type": "VEC4"
    },
    {
      "bufferView": 4,
      "componentType": 5126,
      "count": 28655,
      "type": "VEC2"
    },
    {
      "bufferView": 5,
      "componentType": 5126,
      "count": 28655,
      "max": [
        9.33144474029541,
        -4.013556480407715,
        15.841371536254883
      ],
      "min": [
        -8.845669746398926,
        -21.70240020751953,
        -13.573200225830078
      ],
      "type": "VEC3"
    },
    {
      "bufferView": 6,
      "componentType": 5123,
      "count": 5877,
      "type": "SCALAR"
    },
    {
      "bufferView": 7,
      "componentType": 5126,
      "count": 28655,
      "type": "VEC3"
    },
    {
      "bufferView": 8,
      "componentType": 5126,
      "count": 28655,
      "type": "VEC4"
    },
    {
      "bufferView": 9,
      "componentType": 5126,
      "count": 28655,
      "type": "VEC2"
    }
  ],
  "asset": {
    "version": "2.0"
  },
  "bufferViews": [
    {
      "buffer": 0,
      "byteLength": 343860,
      "target": 34962
    },
    {
      "buffer": 1,
      "byteLength": 337964,
      "target": 34963
    },
    {
      "buffer": 2,
      "byteLength": 343860,
      "target": 34962
    },
    {
      "buffer": 3,
      "byteLength": 458480,
      "target": 34962
    },
    {
      "buffer": 4,
      "byteLength": 229240,
      "target": 34962
    },
    {
      "buffer": 0,
      "byteLength": 343860,
      "target": 34962
    },
    {
      "buffer": 5,
      "byteLength": 11754,
      "target": 34963
    },
    {
      "buffer": 2,
      "byteLength": 343860,
      "target": 34962
    },
    {
      "buffer": 3,
      "byteLength": 458480,
      "target": 34962
    },
    {
      "buffer": 4,
      "byteLength": 229240,
      "target": 34962
    }
  ],
  "buffers": [
    {
      "byteLength": 343860,
      "uri": "data:application/octet-stream;base64,"
    },
    {
      "byteLength": 337964,
      "uri": "data:application/octet-stream;base64,"
    },
    {
      "byteLength": 343860,
      "uri": "data:application/octet-stream;base64,"
    },
    {
      "byteLength": 458480,
      "uri": "data:application/octet-stream;base64,"
    },
    {
      "byteLength": 229240,
      "uri": "data:application/octet-stream;base64,"
    },
    {
      "byteLength": 11754,
      "uri": "data:application/octet-stream;base64,"
    }
  ],
  "materials": [
    {
      "doubleSided": true,
      "name": "defaultMat",
      "pbrMetallicRoughness": {
        "baseColorFactor": [
          0.800000011920929,
          0.800000011920929,
          0.800000011920929,
          1.0
        ]
      }
    }
  ],
  "meshes": [
    {
      "primitives": [
        {
          "attributes": {
            "NORMAL": 2,
            "POSITION": 0,
            "TANGENT": 3,
            "TEXCOORD_0": 4
          },
          "indices": 1,
          "material": 0,
          "mode": 5
        },
        {
          "attributes": {
            "NORMAL": 7,
            "POSITION": 5,
            "TANGENT": 8,
            "TEXCOORD_0": 9
          },
          "indices": 6,
          "material": 0,
          "mode": 4
        }
      ]
    }
  ],
  "nodes": [
    {
      "mesh": 0,
      "name": "_gltfNode_0"
    },
    {
      "children": [
        0
      ],
      "name": "GLTF Converted Scene",
      "rotation": [
        -0.7071067811865475,
        0.0,
        0.0,
        0.7071067811865476
      ],
      "scale": [
        1.0,
        1.0,
        1.0
      ],
      "translation": [
        0.0,
        0.0,
        0.0
      ]
    }
  ],
  "scene": 0,
  "scenes": [
    {
      "nodes": [
        1
      ]
    }
  ]
}
