{
  "accessors": [
    {
      "bufferView": 0,
      "componentType": 5126,
      "count": 28572,
      "max": [
        9.971054077148438,
        -10.18213939666748,
        16.952266693115234
      ],
      "min": [
        -5.799280166625977,
        -24.504199981689453,
        -8.327159881591797
      ],
      "type": "VEC3"
    },
    {
      "bufferView": 1,
      "componentType": 5125,
      "count": 83831,
      "type": "SCALAR"
    },
    {
      "bufferView": 2,
      "componentType": 5126,
      "count": 28572,
      "type": "VEC3"
    },
    {
      "bufferView": 3,
      "componentType": 5126,
      "count": 28572,
      "type": "VEC4"
    },
    {
      "bufferView": 4,
      "componentType": 5126,
      "count": 28572,
      "type": "VEC2"
    },
    {
      "bufferView": 5,
      "componentType": 5126,
      "count": 28572,
      "max": [
        9.971054077148438,
        -10.18213939666748,
        16.952266693115234
      ],
      "min": [
        -5.799280166625977,
        -24.504199981689453,
        -8.327159881591797
      ],
      "type": "VEC3"
    },
    {
      "bufferView": 6,
      "componentType": 5123,
      "count": 5736,
      "type": "SCALAR"
    },
    {
      "bufferView": 7,
      "componentType": 5126,
      "count": 28572,
      "type": "VEC3"
    },
    {
      "bufferView": 8,
      "componentType": 5126,
      "count": 28572,
      "type": "VEC4"
    },
    {
      "bufferView": 9,
      "componentType": 5126,
      "count": 28572,
      "type": "VEC2"
    }
  ],
  "asset": {
    "version": "2.0"
  },
  "bufferViews": [
    {
      "buffer": 0,
      "byteLength": 342864,
      "target": 34962
    },
    {
      "buffer": 1,
      "byteLength": 335324,
      "target": 34963
    },
    {
      "buffer": 2,
      "byteLength": 342864,
      "target": 34962
    },
    {
      "buffer": 3,
      "byteLength": 457152,
      "target": 34962
    },
    {
      "buffer": 4,
      "byteLength": 228576,
      "target": 34962
    },
    {
      "buffer": 0,
      "byteLength": 342864,
      "target": 34962
    },
    {
      "buffer": 5,
      "byteLength": 11472,
      "target": 34963
    },
    {
      "buffer": 2,
      "byteLength": 342864,
      "target": 34962
    },
    {
      "buffer": 3,
      "byteLength": 457152,
      "target": 34962
    },
    {
      "buffer": 4,
      "byteLength": 228576,
      "target": 34962
    }
  ],
  "buffers": [
    {
      "byteLength": 342864,
      "uri": "data:application/octet-stream;base64,"
    },
    {
      "byteLength": 335324,
      "uri": "data:application/octet-stream;base64,"
    },
    {
      "byteLength": 342864,
      "uri": "data:application/octet-stream;base64,"
    },
    {
      "byteLength": 457152,
      "uri": "data:application/octet-stream;base64,"
    },
    {
      "byteLength": 228576,
      "uri": "data:application/octet-stream;base64,"
    },
    {
      "byteLength": 11472,
      "uri": "data:application/octet-stream;base64,"
    }
  ],
  "materials": [
    {
      "doubleSided": true,
      "name": "defaultMat",
      "pbrMetallicRoughness": {
        "baseColorTexture" : {"index" : 0},
        "baseColorFactor": [
          1.0,
          1.0,
          1.0,
          1.0
        ]
      }
    }
  ],
  "images": [
    {
         "uri" : "84aec87891e34b7eb616a676013818aa_RGB_SubTool-0-11416209.jpeg"
    }
  ],
  "textures": [
    {
         "source" : 0
    }
  ],
  "meshes": [
    {
      "primitives": [
        {
          "attributes": {
            "NORMAL": 2,
            "POSITION": 0,
            "TANGENT": 3,
            "TEXCOORD_0": 4
          },
          "indices": 1,
          "mode": 5
        },
        {
          "attributes": {
            "NORMAL": 7,
            "POSITION": 5,
            "TANGENT": 8,
            "TEXCOORD_0": 9
          },
          "indices": 6,
          "mode": 4
        }
      ]
    }
  ],
  "nodes": [
    {
      "mesh": 0,
      "name": "_gltfNode_0"
    },
    {
      "children": [
        0
      ],
      "name": "GLTF Converted Scene",
      "rotation": [
        -0.7071067811865475,
        0.0,
        0.0,
        0.7071067811865476
      ],
      "scale": [
        1.0,
        1.0,
        1.0
      ],
      "translation": [
        0.0,
        0.0,
        0.0
      ]
    }
  ],
  "scene": 0,
  "scenes": [
    {
      "nodes": [
        1
      ]
    }
  ]
}
