mtllib model_0.mtl
o model_0
v -1.6471400260925293 1.0418981313705444 -3.2262799739837646 
v -1.6471400260925293 1.0418981313705444 3.226267099380493 
v 1.647133469581604 1.0418981313705444 -3.2262799739837646 
v 1.647133469581604 1.0418981313705444 3.226267099380493 
v 1.647133469581604 1.0418981313705444 3.226267099380493 
v -1.6471400260925293 1.0418981313705444 3.226267099380493 
v 1.647133469581604 0.5887870192527771 3.226267099380493 
v -1.6471400260925293 0.5887870192527771 3.226267099380493 
v -1.6471400260925293 1.0418981313705444 3.226267099380493 
v -1.6471400260925293 1.0418981313705444 -3.2262799739837646 
v -1.6471400260925293 0.5887870192527771 3.226267099380493 
v -1.6471400260925293 0.5887870192527771 -3.2262799739837646 
v 1.647133469581604 0.5887870192527771 -3.2262799739837646 
v 1.647133469581604 0.5887870192527771 3.226267099380493 
v -1.6471400260925293 0.5887870192527771 -3.2262799739837646 
v -1.6471400260925293 0.5887870192527771 3.226267099380493 
v 1.647133469581604 1.0418981313705444 -3.2262799739837646 
v 1.647133469581604 1.0418981313705444 3.226267099380493 
v 1.647133469581604 0.5887870192527771 -3.2262799739837646 
v 1.647133469581604 0.5887870192527771 3.226267099380493 
v -1.6471400260925293 1.0418981313705444 -3.2262799739837646 
v 1.647133469581604 1.0418981313705444 -3.2262799739837646 
v -1.6471400260925293 0.5887870192527771 -3.2262799739837646 
v 1.647133469581604 0.5887870192527771 -3.2262799739837646 
vn -6.278233954850471e-14 4.413909435272217 0.0006771557964384556 
vn -6.278233954850471e-14 4.413909435272217 0.0006771557964384556 
vn -6.278233954850471e-14 4.413909435272217 0.0006771557964384556 
vn -6.278233954850471e-14 4.413909435272217 0.0006771557964384556 
vn 0 0 0.3099544942378998 
vn 0 0 0.3099544942378998 
vn 0 0 0.3099544942378998 
vn 0 0 0.3099544942378998 
vn -0.6071115136146545 -9.128984460732292e-13 0.0006771557964384556 
vn -0.6071115136146545 -9.128984460732292e-13 0.0006771557964384556 
vn -0.6071115136146545 -9.128984460732292e-13 0.0006771557964384556 
vn -0.6071115136146545 -9.128984460732292e-13 0.0006771557964384556 
vn 1.8807741822279844e-13 -4.413909435272217 0.0006771557964384556 
vn 1.8807741822279844e-13 -4.413909435272217 0.0006771557964384556 
vn 1.8807741822279844e-13 -4.413909435272217 0.0006771557964384556 
vn 1.8807741822279844e-13 -4.413909435272217 0.0006771557964384556 
vn 0.6071115136146545 0 0.0006771557964384556 
vn 0.6071115136146545 0 0.0006771557964384556 
vn 0.6071115136146545 0 0.0006771557964384556 
vn 0.6071115136146545 0 0.0006771557964384556 
vn -1.25564990805134e-13 0 -0.3099544942378998 
vn -1.25564990805134e-13 0 -0.3099544942378998 
vn -1.25564990805134e-13 0 -0.3099544942378998 
vn -1.25564990805134e-13 0 -0.3099544942378998 
s on 
f 1//1 2//2 3//3 
f 2//2 4//4 3//3 
f 3//3 4//4 4//4 
f 4//4 5//5 4//4 
f 4//4 5//5 5//5 
f 5//5 6//6 5//5 
f 5//5 6//6 7//7 
f 6//6 8//8 7//7 
f 7//7 8//8 8//8 
f 8//8 9//9 8//8 
f 8//8 9//9 9//9 
f 9//9 10//10 9//9 
f 9//9 10//10 11//11 
f 10//10 12//12 11//11 
f 11//11 12//12 12//12 
f 12//12 13//13 12//12 
f 12//12 13//13 13//13 
f 13//13 14//14 13//13 
f 13//13 14//14 15//15 
f 14//14 16//16 15//15 
f 15//15 16//16 16//16 
f 16//16 17//17 16//16 
f 16//16 17//17 17//17 
f 17//17 18//18 17//17 
f 17//17 18//18 19//19 
f 18//18 20//20 19//19 
f 19//19 20//20 20//20 
f 20//20 21//21 20//20 
f 20//20 21//21 21//21 
f 21//21 22//22 21//21 
f 21//21 22//22 23//23 
f 22//22 24//24 23//23 

