{
  "accessors": [
    {
      "bufferView": 2,
      "componentType": 5126,
      "count": 1984,
      "max": [
        1.000000238418579,
        1.0,
        1.0
      ],
      "min": [
        -0.9999998211860657,
        -1.0000003576278687,
        -1.0
      ],
      "type": "VEC3"
    },
    {
      "bufferView": 2,
      "byteOffset": 23808,
      "componentType": 5126,
      "count": 1984,
      "max": [
        0.9904382824897766,
        0.9904384016990662,
        0.9951385259628296
      ],
      "min": [
        -0.9904382824897766,
        -0.9904383420944214,
        -0.9951385259628296
      ],
      "type": "VEC3"
    },
    {
      "bufferView": 1,
      "componentType": 5126,
      "count": 1984,
      "max": [
        1.000000238418579,
        1.0
      ],
      "min": [
        0.0,
        0.0
      ],
      "type": "VEC2"
    },
    {
      "bufferView": 0,
      "componentType": 5125,
      "count": 2880,
      "type": "SCALAR"
    },
    {
      "bufferView": 2,
      "byteOffset": 47616,
      "componentType": 5126,
      "count": 559,
      "max": [
        1.000000238418579,
        1.0,
        1.0
      ],
      "min": [
        -0.9999998211860657,
        -1.0000003576278687,
        -1.0
      ],
      "type": "VEC3"
    },
    {
      "bufferView": 2,
      "byteOffset": 54324,
      "componentType": 5126,
      "count": 559,
      "max": [
        1.0,
        1.0,
        1.0
      ],
      "min": [
        -1.0,
        -1.0,
        -1.0
      ],
      "type": "VEC3"
    },
    {
      "bufferView": 1,
      "byteOffset": 15872,
      "componentType": 5126,
      "count": 559,
      "max": [
        1.000000238418579,
        1.0
      ],
      "min": [
        0.0,
        0.0
      ],
      "type": "VEC2"
    },
    {
      "bufferView": 0,
      "byteOffset": 11520,
      "componentType": 5125,
      "count": 2880,
      "type": "SCALAR"
    },
    {
      "bufferView": 2,
      "byteOffset": 61032,
      "componentType": 5126,
      "count": 559,
      "max": [
        1.000000238418579,
        1.0,
        1.0
      ],
      "min": [
        -0.9999998211860657,
        -1.0000003576278687,
        -1.0
      ],
      "type": "VEC3"
    },
    {
      "bufferView": 2,
      "byteOffset": 67740,
      "componentType": 5126,
      "count": 559,
      "max": [
        1.0,
        1.0,
        1.0
      ],
      "min": [
        -1.0,
        -1.0,
        -1.0
      ],
      "type": "VEC3"
    },
    {
      "bufferView": 1,
      "byteOffset": 20344,
      "componentType": 5126,
      "count": 559,
      "max": [
        1.000000238418579,
        1.0
      ],
      "min": [
        0.0,
        0.0
      ],
      "type": "VEC2"
    },
    {
      "bufferView": 0,
      "byteOffset": 23040,
      "componentType": 5125,
      "count": 2880,
      "type": "SCALAR"
    },
    {
      "bufferView": 2,
      "byteOffset": 74448,
      "componentType": 5126,
      "count": 1984,
      "max": [
        1.000000238418579,
        1.0,
        1.0
      ],
      "min": [
        -0.9999998211860657,
        -1.0000003576278687,
        -1.0
      ],
      "type": "VEC3"
    },
    {
      "bufferView": 2,
      "byteOffset": 98256,
      "componentType": 5126,
      "count": 1984,
      "max": [
        0.9904382824897766,
        0.9904384016990662,
        0.9951385259628296
      ],
      "min": [
        -0.9904382824897766,
        -0.9904383420944214,
        -0.9951385259628296
      ],
      "type": "VEC3"
    },
    {
      "bufferView": 1,
      "byteOffset": 24816,
      "componentType": 5126,
      "count": 1984,
      "max": [
        1.000000238418579,
        1.0
      ],
      "min": [
        0.0,
        0.0
      ],
      "type": "VEC2"
    },
    {
      "bufferView": 0,
      "byteOffset": 34560,
      "componentType": 5125,
      "count": 2880,
      "type": "SCALAR"
    },
    {
      "bufferView": 2,
      "byteOffset": 122064,
      "componentType": 5126,
      "count": 637,
      "max": [
        1.25,
        1.25,
        0.25
      ],
      "min": [
        -1.25,
        -1.25,
        -0.25
      ],
      "type": "VEC3"
    },
    {
      "bufferView": 2,
      "byteOffset": 129708,
      "componentType": 5126,
      "count": 637,
      "max": [
        1.0,
        1.0,
        0.9999423027038574
      ],
      "min": [
        -1.0,
        -1.0,
        -0.9999423027038574
      ],
      "type": "VEC3"
    },
    {
      "bufferView": 1,
      "byteOffset": 40688,
      "componentType": 5126,
      "count": 637,
      "max": [
        1.0,
        1.0
      ],
      "min": [
        8.881784197001252e-16,
        2.220446049250313e-16
      ],
      "type": "VEC2"
    },
    {
      "bufferView": 0,
      "byteOffset": 46080,
      "componentType": 5125,
      "count": 3456,
      "type": "SCALAR"
    },
    {
      "bufferView": 2,
      "byteOffset": 137352,
      "componentType": 5126,
      "count": 9684,
      "max": [
        1.0,
        6.974064350128174,
        3.479156017303467
      ],
      "min": [
        -1.0000009536743164,
        -1.0000028610229492,
        -0.20045936107635498
      ],
      "type": "VEC3"
    },
    {
      "bufferView": 2,
      "byteOffset": 253560,
      "componentType": 5126,
      "count": 9684,
      "max": [
        1.0,
        1.0,
        1.0
      ],
      "min": [
        -1.0,
        -1.0,
        -1.0
      ],
      "type": "VEC3"
    },
    {
      "bufferView": 1,
      "byteOffset": 45784,
      "componentType": 5126,
      "count": 9684,
      "max": [
        1.0,
        1.0000003576278687
      ],
      "min": [
        0.0,
        0.0
      ],
      "type": "VEC2"
    },
    {
      "bufferView": 0,
      "byteOffset": 59904,
      "componentType": 5125,
      "count": 27552,
      "type": "SCALAR"
    },
    {
      "bufferView": 2,
      "byteOffset": 369768,
      "componentType": 5126,
      "count": 559,
      "max": [
        0.9035186767578125,
        0.9439219832420349,
        0.9997405409812927
      ],
      "min": [
        -0.9982404708862305,
        -0.9788599014282227,
        -1.4031120538711548
      ],
      "type": "VEC3"
    },
    {
      "bufferView": 2,
      "byteOffset": 376476,
      "componentType": 5126,
      "count": 559,
      "max": [
        0.9994932413101196,
        0.9987930655479431,
        1.0
      ],
      "min": [
        -0.9997708797454834,
        -0.9993940591812134,
        -0.9358993172645569
      ],
      "type": "VEC3"
    },
    {
      "bufferView": 1,
      "byteOffset": 123256,
      "componentType": 5126,
      "count": 559,
      "max": [
        1.000000238418579,
        1.0
      ],
      "min": [
        0.0,
        0.0
      ],
      "type": "VEC2"
    },
    {
      "bufferView": 0,
      "byteOffset": 170112,
      "componentType": 5125,
      "count": 2880,
      "type": "SCALAR"
    },
    {
      "bufferView": 2,
      "byteOffset": 383184,
      "componentType": 5126,
      "count": 2077,
      "max": [
        0.993018388748169,
        1.0707147121429443,
        0.8929791450500488
      ],
      "min": [
        -1.1843594312667847,
        -1.212019920349121,
        -0.9848430156707764
      ],
      "type": "VEC3"
    },
    {
      "bufferView": 2,
      "byteOffset": 408108,
      "componentType": 5126,
      "count": 2077,
      "max": [
        0.9996597766876221,
        0.9995869398117065,
        0.9999434947967529
      ],
      "min": [
        -0.9998295307159424,
        -0.9975950121879578,
        -0.9999933242797852
      ],
      "type": "VEC3"
    },
    {
      "bufferView": 1,
      "byteOffset": 127728,
      "componentType": 5126,
      "count": 2077,
      "max": [
        1.000000238418579,
        1.0
      ],
      "min": [
        0.0,
        0.0
      ],
      "type": "VEC2"
    },
    {
      "bufferView": 0,
      "byteOffset": 181632,
      "componentType": 5125,
      "count": 11520,
      "type": "SCALAR"
    },
    {
      "bufferView": 2,
      "byteOffset": 433032,
      "componentType": 5126,
      "count": 688,
      "max": [
        1.6902976036071777,
        48.206573486328125,
        1.4384673833847046
      ],
      "min": [
        -1.6915242671966553,
        -2.437335968017578,
        -1.269180178642273
      ],
      "type": "VEC3"
    },
    {
      "bufferView": 2,
      "byteOffset": 441288,
      "componentType": 5126,
      "count": 688,
      "max": [
        0.9967695474624634,
        0.9979997277259827,
        0.9985844492912292
      ],
      "min": [
        -0.9970155954360962,
        -0.9993795156478882,
        -0.9985844492912292
      ],
      "type": "VEC3"
    },
    {
      "bufferView": 1,
      "byteOffset": 144344,
      "componentType": 5126,
      "count": 688,
      "max": [
        0.875,
        1.0
      ],
      "min": [
        0.125,
        0.0
      ],
      "type": "VEC2"
    },
    {
      "bufferView": 0,
      "byteOffset": 227712,
      "componentType": 5125,
      "count": 3528,
      "type": "SCALAR"
    },
    {
      "bufferView": 2,
      "byteOffset": 449544,
      "componentType": 5126,
      "count": 143,
      "max": [
        1.0,
        0.020000001415610313,
        0.01902141608297825
      ],
      "min": [
        -0.86472088098526,
        -0.16096125543117523,
        -0.019021132960915565
      ],
      "type": "VEC3"
    },
    {
      "bufferView": 2,
      "byteOffset": 451260,
      "componentType": 5126,
      "count": 143,
      "max": [
        0.14612393081188202,
        0.9999972581863403,
        0.9523230791091919
      ],
      "min": [
        -0.14612393081188202,
        -0.9999972581863403,
        -0.9523230791091919
      ],
      "type": "VEC3"
    },
    {
      "bufferView": 1,
      "byteOffset": 149848,
      "componentType": 5126,
      "count": 143,
      "max": [
        1.0,
        1.0
      ],
      "min": [
        0.0,
        0.0
      ],
      "type": "VEC2"
    },
    {
      "bufferView": 0,
      "byteOffset": 241824,
      "componentType": 5125,
      "count": 720,
      "type": "SCALAR"
    }
  ],
  "asset": {
    "extras": {
      "author": "Taenshi (https://sketchfab.com/taenshi)",
      "license": "CC-BY-4.0 (http://creativecommons.org/licenses/by/4.0/)",
      "source": "https://sketchfab.com/3d-models/toy-dog-with-wheels-glowing-tail-91604b090b6d401ba3d1072f8d5076e5",
      "title": "Toy Dog with Wheels & glowing Tail"
    },
    "generator": "Sketchfab-12.66.0",
    "version": "2.0"
  },
  "bufferViews": [
    {
      "buffer": 0,
      "byteLength": 244704,
      "name": "floatBufferViews",
      "target": 34963
    },
    {
      "buffer": 0,
      "byteLength": 150992,
      "byteOffset": 244704,
      "byteStride": 8,
      "name": "floatBufferViews",
      "target": 34962
    },
    {
      "buffer": 0,
      "byteLength": 452976,
      "byteOffset": 395696,
      "byteStride": 12,
      "name": "floatBufferViews",
      "target": 34962
    }
  ],
  "buffers": [
    {
      "byteLength": 848672,
      "uri": "scene.bin"
    }
  ],
  "materials": [
    {
      "doubleSided": true,
      "emissiveFactor": [
        1.0,
        0.04646919052940061,
        0.04646919052940061
      ],
      "name": "Material.001",
      "pbrMetallicRoughness": {
        "baseColorFactor": [
          0.9720470726719795,
          0.0,
          0.0,
          1.0
        ],
        "metallicFactor": 0.0,
        "roughnessFactor": 0.8040408205773457
      }
    },
    {
      "doubleSided": true,
      "name": "Material.008",
      "pbrMetallicRoughness": {
        "baseColorFactor": [
          0.0,
          0.0,
          0.0,
          1.0
        ],
        "metallicFactor": 0.0
      }
    },
    {
      "doubleSided": true,
      "name": "Material.005",
      "pbrMetallicRoughness": {
        "baseColorFactor": [
          0.742664,
          0.03529630000000003,
          0.021395800000000013,
          1.0
        ],
        "metallicFactor": 0.37796944396085813,
        "roughnessFactor": 0.9587045074706327
      }
    },
    {
      "doubleSided": true,
      "name": "Material.002",
      "pbrMetallicRoughness": {
        "baseColorFactor": [
          0.4933703798404019,
          0.1669812153420751,
          0.05179480590778451,
          1.0
        ],
        "metallicFactor": 0.0,
        "roughnessFactor": 0.8040408205773457
      }
    },
    {
      "doubleSided": true,
      "name": "Material.004",
      "pbrMetallicRoughness": {
        "baseColorFactor": [
          0.055790711926786696,
          0.019119476233183316,
          0.009973070328793455,
          1.0
        ],
        "metallicFactor": 0.0,
        "roughnessFactor": 0.9913068756202418
      }
    },
    {
      "doubleSided": true,
      "name": "Material.007",
      "pbrMetallicRoughness": {
        "baseColorFactor": [
          0.0,
          0.0,
          0.0,
          1.0
        ],
        "metallicFactor": 0.0
      }
    }
  ],
  "meshes": [
    {
      "name": "Sphere.002_Material.001_0",
      "primitives": [
        {
          "attributes": {
            "NORMAL": 1,
            "POSITION": 0,
            "TEXCOORD_0": 2
          },
          "indices": 3,
          "material": 0,
          "mode": 4
        }
      ]
    },
    {
      "name": "Sphere.003_Material.008_0",
      "primitives": [
        {
          "attributes": {
            "NORMAL": 5,
            "POSITION": 4,
            "TEXCOORD_0": 6
          },
          "indices": 7,
          "material": 1,
          "mode": 4
        }
      ]
    },
    {
      "name": "Sphere.005_Material.008_0",
      "primitives": [
        {
          "attributes": {
            "NORMAL": 9,
            "POSITION": 8,
            "TEXCOORD_0": 10
          },
          "indices": 11,
          "material": 1,
          "mode": 4
        }
      ]
    },
    {
      "name": "Sphere.004_Material.008_0",
      "primitives": [
        {
          "attributes": {
            "NORMAL": 13,
            "POSITION": 12,
            "TEXCOORD_0": 14
          },
          "indices": 15,
          "material": 1,
          "mode": 4
        }
      ]
    },
    {
      "name": "Torus_Material.005_0",
      "primitives": [
        {
          "attributes": {
            "NORMAL": 17,
            "POSITION": 16,
            "TEXCOORD_0": 18
          },
          "indices": 19,
          "material": 2,
          "mode": 4
        }
      ]
    },
    {
      "name": "BezierCircle.001_Material.005_0",
      "primitives": [
        {
          "attributes": {
            "NORMAL": 21,
            "POSITION": 20,
            "TEXCOORD_0": 22
          },
          "indices": 23,
          "material": 2,
          "mode": 4
        }
      ]
    },
    {
      "name": "Sphere_Material.002_0",
      "primitives": [
        {
          "attributes": {
            "NORMAL": 25,
            "POSITION": 24,
            "TEXCOORD_0": 26
          },
          "indices": 27,
          "material": 3,
          "mode": 4
        }
      ]
    },
    {
      "name": "Sphere.001_Material.002_0",
      "primitives": [
        {
          "attributes": {
            "NORMAL": 29,
            "POSITION": 28,
            "TEXCOORD_0": 30
          },
          "indices": 31,
          "material": 3,
          "mode": 4
        }
      ]
    },
    {
      "name": "Cube.001_Material.004_0",
      "primitives": [
        {
          "attributes": {
            "NORMAL": 33,
            "POSITION": 32,
            "TEXCOORD_0": 34
          },
          "indices": 35,
          "material": 4,
          "mode": 4
        }
      ]
    },
    {
      "name": "BezierCurve_Material.007_0",
      "primitives": [
        {
          "attributes": {
            "NORMAL": 37,
            "POSITION": 36,
            "TEXCOORD_0": 38
          },
          "indices": 39,
          "material": 5,
          "mode": 4
        }
      ]
    }
  ],
  "nodes": [
    {
      "children": [
        1
      ],
      "matrix": [
        0.002385320607572794,
        0.0,
        0.0,
        0.0,
        0.0,
        5.296475719280367e-19,
        -0.002385320607572794,
        0.0,
        0.0,
        0.002385320607572794,
        5.296475719280367e-19,
        0.0,
        0.0,
        0.0,
        0.0,
        1.0
      ],
      "name": "Sketchfab_model"
    },
    {
      "children": [
        2
      ],
      "matrix": [
        1.0,
        0.0,
        0.0,
        0.0,
        0.0,
        0.0,
        1.0,
        0.0,
        0.0,
        -1.0,
        0.0,
        0.0,
        0.0,
        0.0,
        0.0,
        1.0
      ],
      "name": "WheelDodge.fbx"
    },
    {
      "children": [
        3,
        5,
        7,
        9,
        11,
        13,
        16,
        18,
        20,
        22,
        24
      ],
      "name": "RootNode"
    },
    {
      "children": [
        4
      ],
      "matrix": [
        -9.750250816345215,
        -0.0,
        -0.0,
        -0.0,
        0.0,
        1.5885174872397213e-06,
        9.750250816345085,
        -0.0,
        -0.0,
        -9.750250816345085,
        1.5885174872397213e-06,
        -0.0,
        -139.72434997558594,
        585.3211669921875,
        69.31558227539063,
        1.0
      ],
      "name": "Sphere.002"
    },
    {
      "mesh": 0,
      "name": "Sphere.002_Material.001_0"
    },
    {
      "children": [
        6
      ],
      "matrix": [
        -10.573816299438477,
        -0.0,
        -0.0,
        -0.0,
        -0.0,
        1.7226933352689373e-06,
        10.573816299438336,
        -0.0,
        -0.0,
        -10.573816299438336,
        1.7226933352689373e-06,
        -0.0,
        435.9210510253906,
        599.4513549804688,
        94.747314453125,
        1.0
      ],
      "name": "Sphere.003"
    },
    {
      "mesh": 1,
      "name": "Sphere.003_Material.008_0"
    },
    {
      "children": [
        8
      ],
      "matrix": [
        -10.573816299438477,
        -0.0,
        -0.0,
        -0.0,
        -0.0,
        1.7226933352689373e-06,
        10.573816299438336,
        -0.0,
        -0.0,
        -10.573816299438336,
        1.7226933352689373e-06,
        -0.0,
        435.9210510253906,
        599.4513549804688,
        16.43311309814453,
        1.0
      ],
      "name": "Sphere.005"
    },
    {
      "mesh": 2,
      "name": "Sphere.005_Material.008_0"
    },
    {
      "children": [
        10
      ],
      "matrix": [
        13.634390830993652,
        0.0,
        0.0,
        0.0,
        0.0,
        -2.2213242172792425e-06,
        -13.634390830993473,
        0.0,
        0.0,
        13.634390830993473,
        -2.2213242172792425e-06,
        0.0,
        513.46337890625,
        551.9863891601563,
        57.4946174621582,
        1.0
      ],
      "name": "Sphere.004"
    },
    {
      "mesh": 3,
      "name": "Sphere.004_Material.008_0"
    },
    {
      "children": [
        12
      ],
      "matrix": [
        50.654685974121094,
        0.0,
        0.0,
        0.0,
        0.0,
        -6.0217159642927034e-06,
        -36.961029052733885,
        0.0,
        0.0,
        28.402030944823842,
        -4.627278177638581e-06,
        0.0,
        360.6307678222656,
        504.1700439453125,
        53.02460861206055,
        1.0
      ],
      "name": "Torus"
    },
    {
      "mesh": 4,
      "name": "Torus_Material.005_0"
    },
    {
      "children": [
        14
      ],
      "matrix": [
        99.05070135670171,
        8.193310826077713,
        -11.037512970498339,
        0.0,
        -3.392042396464254,
        92.3806754659916,
        38.13534907179591,
        0.0,
        13.32107672085478,
        -37.39893360096574,
        91.78162754401781,
        0.0,
        -495.2291564941406,
        2846.3623046875,
        1437.594970703125,
        1.0
      ],
      "name": "Sun"
    },
    {
      "children": [
        15
      ],
      "matrix": [
        1.0,
        0.0,
        0.0,
        0.0,
        0.0,
        2.220446049250313e-16,
        1.0,
        0.0,
        0.0,
        -1.0,
        2.220446049250313e-16,
        0.0,
        0.0,
        0.0,
        0.0,
        1.0
      ],
      "name": "Object_14"
    },
    {
      "name": "Object_15"
    },
    {
      "children": [
        17
      ],
      "matrix": [
        9.450299804100737e-06,
        -48.535957336424865,
        -1.3818950313615589e-12,
        0.0,
        -48.53595733640665,
        -9.450299809489312e-06,
        4.204434761344098e-05,
        0.0,
        -4.204434761344045e-05,
        -6.804441696239079e-12,
        -48.53595733640757,
        0.0,
        324.7428283691406,
        411.2547912597656,
        135.6184539794922,
        1.0
      ],
      "name": "BezierCircle.001"
    },
    {
      "mesh": 5,
      "name": "BezierCircle.001_Material.005_0"
    },
    {
      "children": [
        19
      ],
      "matrix": [
        12.465677891179997,
        77.84429053676985,
        -3.566153605973738e-06,
        0.0,
        1.1431733051923145e-05,
        -5.237532489588743e-06,
        -74.36799621581926,
        0.0,
        -101.92519552034976,
        16.321899108991307,
        -1.6817289269748534e-05,
        0.0,
        367.6980285644531,
        580.7084350585938,
        55.203758239746094,
        1.0
      ],
      "name": "Sphere"
    },
    {
      "mesh": 6,
      "name": "Sphere_Material.002_0"
    },
    {
      "children": [
        21
      ],
      "matrix": [
        5.374376558849006e-06,
        71.1857757568357,
        -2.121500687718581e-06,
        0.0,
        2.0392502191520086e-05,
        -2.1541282849624665e-06,
        -72.2805252075166,
        0.0,
        -261.7321472167857,
        1.9760225178441222e-05,
        -7.384248262367444e-05,
        0.0,
        160.44606018066406,
        468.13922119140625,
        49.76866149902344,
        1.0
      ],
      "name": "Sphere.001"
    },
    {
      "mesh": 7,
      "name": "Sphere.001_Material.002_0"
    },
    {
      "children": [
        23
      ],
      "matrix": [
        31.424097061157227,
        3.260735528493596e-16,
        -7.622861355733188e-18,
        0.0,
        8.033442000062979e-19,
        -0.15474700406348757,
        -3.3077525769632445,
        0.0,
        -5.291447037107303e-16,
        50.93859528508261,
        -2.383066698055699,
        0.0,
        350.07098388671875,
        545.7993774414063,
        130.52333068847656,
        1.0
      ],
      "name": "Cube.001"
    },
    {
      "mesh": 8,
      "name": "Cube.001_Material.004_0"
    },
    {
      "children": [
        25
      ],
      "matrix": [
        58.82039699474559,
        -56.21891631493406,
        -4.455202851361561e-06,
        0.0,
        -56.21891631491585,
        -58.82039699472095,
        -7.048331444096408e-05,
        0.0,
        4.54790014197398e-05,
        5.403153594794339e-05,
        -81.36587524410999,
        0.0,
        -95.9499740600586,
        528.4091796875,
        69.92218017578125,
        1.0
      ],
      "name": "BezierCurve"
    },
    {
      "mesh": 9,
      "name": "BezierCurve_Material.007_0"
    }
  ],
  "scene": 0,
  "scenes": [
    {
      "name": "Sketchfab_Scene",
      "nodes": [
        0
      ]
    }
  ]
}
