{
  "accessors": [
    {
      "bufferView": 2,
      "componentType": 5126,
      "count": 65532,
      "max": [
        10.645874977111816,
        15.007617950439453,
        30.45812225341797
      ],
      "min": [
        -11.191278457641602,
        -12.028489112854004,
        1.0728809833526611
      ],
      "type": "VEC3"
    },
    {
      "bufferView": 2,
      "byteOffset": 786384,
      "componentType": 5126,
      "count": 65532,
      "max": [
        0.9999803900718689,
        0.999962568283081,
        0.9998534917831421
      ],
      "min": [
        -0.9997947812080383,
        -0.9999721646308899,
        -0.9997551441192627
      ],
      "type": "VEC3"
    },
    {
      "bufferView": 1,
      "componentType": 5126,
      "count": 65532,
      "max": [
        1.0,
        1.0
      ],
      "min": [
        0.0,
        0.0
      ],
      "type": "VEC2"
    },
    {
      "bufferView": 0,
      "componentType": 5125,
      "count": 246690,
      "type": "SCALAR"
    },
    {
      "bufferView": 2,
      "byteOffset": 1572768,
      "componentType": 5126,
      "count": 65532,
      "max": [
        9.254179954528809,
        14.597623825073242,
        30.314109802246094
      ],
      "min": [
        -11.031254768371582,
        -11.580418586730957,
        1.8769680261611938
      ],
      "type": "VEC3"
    },
    {
      "bufferView": 2,
      "byteOffset": 2359152,
      "componentType": 5126,
      "count": 65532,
      "max": [
        0.9998977184295654,
        0.9999541640281677,
        0.9999400973320007
      ],
      "min": [
        -0.9999259114265442,
        -0.9999721646308899,
        -0.9967761039733887
      ],
      "type": "VEC3"
    },
    {
      "bufferView": 1,
      "byteOffset": 524256,
      "componentType": 5126,
      "count": 65532,
      "max": [
        1.0,
        0.9998999834060669
      ],
      "min": [
        0.0,
        0.0
      ],
      "type": "VEC2"
    },
    {
      "bufferView": 0,
      "byteOffset": 986760,
      "componentType": 5125,
      "count": 176319,
      "type": "SCALAR"
    },
    {
      "bufferView": 2,
      "byteOffset": 3145536,
      "componentType": 5126,
      "count": 65532,
      "max": [
        7.903028964996338,
        14.737045288085938,
        30.464908599853516
      ],
      "min": [
        -11.075639724731445,
        -11.666899681091309,
        2.1951680183410645
      ],
      "type": "VEC3"
    },
    {
      "bufferView": 2,
      "byteOffset": 3931920,
      "componentType": 5126,
      "count": 65532,
      "max": [
        0.9999799132347107,
        0.9999541640281677,
        0.9999953508377075
      ],
      "min": [
        -0.9999145865440369,
        -0.9999815821647644,
        -0.9983492493629456
      ],
      "type": "VEC3"
    },
    {
      "bufferView": 1,
      "byteOffset": 1048512,
      "componentType": 5126,
      "count": 65532,
      "max": [
        1.0,
        0.9998999834060669
      ],
      "min": [
        0.0,
        0.0
      ],
      "type": "VEC2"
    },
    {
      "bufferView": 0,
      "byteOffset": 1692036,
      "componentType": 5125,
      "count": 137409,
      "type": "SCALAR"
    },
    {
      "bufferView": 2,
      "byteOffset": 4718304,
      "componentType": 5126,
      "count": 2505,
      "max": [
        8.135743141174316,
        11.810145378112793,
        29.11089515686035
      ],
      "min": [
        -3.2279489040374756,
        -11.582942962646484,
        2.0100250244140625
      ],
      "type": "VEC3"
    },
    {
      "bufferView": 2,
      "byteOffset": 4748364,
      "componentType": 5126,
      "count": 2505,
      "max": [
        0.9965044260025024,
        0.9886859655380249,
        0.9982959628105164
      ],
      "min": [
        -0.8295096158981323,
        -0.9982088804244995,
        -0.9185741543769836
      ],
      "type": "VEC3"
    },
    {
      "bufferView": 1,
      "byteOffset": 1572768,
      "componentType": 5126,
      "count": 2505,
      "max": [
        0.9997000098228455,
        0.9998000264167786
      ],
      "min": [
        0.0044999998062849045,
        0.0
      ],
      "type": "VEC2"
    },
    {
      "bufferView": 0,
      "byteOffset": 2241672,
      "componentType": 5125,
      "count": 3996,
      "type": "SCALAR"
    }
  ],
  "asset": {
    "extras": {
      "author": "Enlil Scan (https://sketchfab.com/enlil.scan)",
      "license": "CC-BY-4.0 (http://creativecommons.org/licenses/by/4.0/)",
      "source": "https://sketchfab.com/3d-models/micha-3d-photoscanned-human-face-c49a92f2bd6c4ec0a488bdc0e381d31c",
      "title": "Michał 3D - Photoscanned human face"
    },
    "generator": "Sketchfab-12.68.0",
    "version": "2.0"
  },
  "bufferViews": [
    {
      "buffer": 0,
      "byteLength": 2257656,
      "name": "floatBufferViews",
      "target": 34963
    },
    {
      "buffer": 0,
      "byteLength": 1592808,
      "byteOffset": 2257656,
      "byteStride": 8,
      "name": "floatBufferViews",
      "target": 34962
    },
    {
      "buffer": 0,
      "byteLength": 4778424,
      "byteOffset": 3850464,
      "byteStride": 12,
      "name": "floatBufferViews",
      "target": 34962
    }
  ],
  "buffers": [
    {
      "byteLength": 8628888,
      "uri": "scene.bin"
    }
  ],
  "images": [
    {
      "uri": "textures/material_0_baseColor.jpeg"
    }
  ],
  "materials": [
    {
      "doubleSided": true,
      "name": "material_0",
      "pbrMetallicRoughness": {
        "baseColorTexture": {
          "index": 0
        },
        "metallicFactor": 0.0,
        "roughnessFactor": 0.6
      }
    }
  ],
  "meshes": [
    {
      "name": "Object_0",
      "primitives": [
        {
          "attributes": {
            "NORMAL": 1,
            "POSITION": 0,
            "TEXCOORD_0": 2
          },
          "indices": 3,
          "material": 0,
          "mode": 4
        }
      ]
    },
    {
      "name": "Object_1",
      "primitives": [
        {
          "attributes": {
            "NORMAL": 5,
            "POSITION": 4,
            "TEXCOORD_0": 6
          },
          "indices": 7,
          "material": 0,
          "mode": 4
        }
      ]
    },
    {
      "name": "Object_2",
      "primitives": [
        {
          "attributes": {
            "NORMAL": 9,
            "POSITION": 8,
            "TEXCOORD_0": 10
          },
          "indices": 11,
          "material": 0,
          "mode": 4
        }
      ]
    },
    {
      "name": "Object_3",
      "primitives": [
        {
          "attributes": {
            "NORMAL": 13,
            "POSITION": 12,
            "TEXCOORD_0": 14
          },
          "indices": 15,
          "material": 0,
          "mode": 4
        }
      ]
    }
  ],
  "nodes": [
    {
      "children": [
        1
      ],
      "matrix": [
        0.9974454641342163,
        0.0344870835542679,
        -0.06255558878183363,
        0.0,
        -0.06259282678365707,
        2.21609203520363e-16,
        -0.9980391263961792,
        0.0,
        -0.034419458359479904,
        0.9994051456451416,
        0.002158643910661562,
        0.0,
        0.6352953314781189,
        0.018786057829856883,
        -0.054021313786506646,
        1.0
      ],
      "name": "Sketchfab_model"
    },
    {
      "children": [
        2,
        3,
        4,
        5
      ],
      "name": "MICHAL_KALINOWSKI_3D_FINAL_V1.obj.cleaner.materialmerger.gles"
    },
    {
      "mesh": 0,
      "name": "Object_2"
    },
    {
      "mesh": 1,
      "name": "Object_3"
    },
    {
      "mesh": 2,
      "name": "Object_4"
    },
    {
      "mesh": 3,
      "name": "Object_5"
    }
  ],
  "samplers": [
    {
      "magFilter": 9729,
      "minFilter": 9987,
      "wrapS": 10497,
      "wrapT": 10497
    }
  ],
  "scene": 0,
  "scenes": [
    {
      "name": "Sketchfab_Scene",
      "nodes": [
        0
      ]
    }
  ],
  "textures": [
    {
      "sampler": 0,
      "source": 0
    }
  ]
}
