mtllib model_8.mtl
o model_8
v -1.6362661123275757 -8.002686500549316 8.251911163330078 
v -1.7490003108978271 -7.864292144775391 8.12502670288086 
v -1.6553442478179932 -7.99018669128418 8.259702682495117 
v -1.6929222345352173 -7.948221683502197 8.226868629455566 
v -2.5150146484375 -15.409919738769531 1.734031319618225 
v -2.6422019004821777 -15.442063331604004 1.8353166580200195 
v -2.50692081451416 -15.455455780029297 1.6722583770751953 
v -2.5670456886291504 -15.410812377929688 1.860916256904602 
v -2.6422019004821777 -15.442063331604004 1.8353166580200195 
v -2.538717746734619 -15.396526336669922 1.8041518926620483 
v -1.75420343875885 -10.542896270751953 9.759505271911621 
v -1.720094084739685 -10.54111099243164 9.5580472946167 
v -1.8258907794952393 -10.440216064453125 9.62204647064209 
v -1.720094084739685 -10.54111099243164 9.5580472946167 
v -1.75420343875885 -10.542896270751953 9.759505271911621 
v -1.6599692106246948 -10.637539863586426 9.815712928771973 
v -1.6599692106246948 -10.637539863586426 9.815712928771973 
v -1.4940476417541504 -10.609861373901367 9.767852783203125 
v -1.4587820768356323 -10.577717781066895 9.7133150100708 
v -1.598688006401062 -10.581289291381836 9.548029899597168 
v -1.720094084739685 -10.54111099243164 9.5580472946167 
v -1.6599692106246948 -10.637539863586426 9.815712928771973 
v -1.7628753185272217 -10.5375394821167 9.367719650268555 
v -1.8258907794952393 -10.440216064453125 9.62204647064209 
v -1.720094084739685 -10.54111099243164 9.5580472946167 
v -2.3941867351531982 -15.481348991394043 1.628293752670288 
v -2.3311712741851807 -15.492063522338867 1.6371979713439941 
v -2.3479368686676025 -15.457242012023926 1.6344155073165894 
v -2.3479368686676025 -15.457242012023926 1.6344155073165894 
v -2.3311712741851807 -15.492063522338867 1.6371979713439941 
v -2.285499334335327 -15.451884269714355 1.6483283042907715 
v -2.4433271884918213 -15.506349563598633 1.6021376848220825 
v -2.4525771141052246 -15.443848609924316 1.6499978303909302 
v -2.50692081451416 -15.455455780029297 1.6722583770751953 
v -2.344468116760254 -15.549206733703613 1.594346523284912 
v -2.3311712741851807 -15.492063522338867 1.6371979713439941 
v -2.3941867351531982 -15.481348991394043 1.628293752670288 
v -2.285499334335327 -15.451884269714355 1.6483283042907715 
v -2.3311712741851807 -15.492063522338867 1.6371979713439941 
v -2.2739369869232178 -15.484920501708984 1.6733713150024414 
v -1.4940476417541504 -10.609861373901367 9.767852783203125 
v -1.462250828742981 -10.59736156463623 9.75394058227539 
v -1.4587820768356323 -10.577717781066895 9.7133150100708 
vn 0.588158369064331 0.7530806660652161 0.2948545813560486 
vn 0.588158369064331 0.7530806660652161 0.2948545813560486 
vn 0.588158369064331 0.7530806660652161 0.2948545813560486 
vn 0.588158369064331 0.7530806660652161 0.2948545813560486 
vn 0.5750181078910828 -0.6243430972099304 0.528724730014801 
vn 0.5750181078910828 -0.6243430972099304 0.528724730014801 
vn 0.5750181078910828 -0.6243430972099304 0.528724730014801 
vn 0.3893808126449585 -0.9203281402587891 -0.03713129088282585 
vn 0.3893808126449585 -0.9203281402587891 -0.03713129088282585 
vn 0.3893808126449585 -0.9203281402587891 -0.03713129088282585 
vn 0.7229213118553162 0.678868293762207 0.12854042649269104 
vn 0.7229213118553162 0.678868293762207 0.12854042649269104 
vn 0.7229213118553162 0.678868293762207 0.12854042649269104 
vn 0.6706416606903076 0.7320321798324585 0.11986933648586273 
vn 0.6706416606903076 0.7320321798324585 0.11986933648586273 
vn 0.6706416606903076 0.7320321798324585 0.11986933648586273 
vn 0.005654193460941315 0.8578854203224182 0.5138099193572998 
vn 0.005654193460941315 0.8578854203224182 0.5138099193572998 
vn 0.005654193460941315 0.8578854203224182 0.5138099193572998 
vn 0.3236340284347534 0.9081702828407288 0.26549527049064636 
vn 0.3236340284347534 0.9081702828407288 0.26549527049064636 
vn 0.3236340284347534 0.9081702828407288 0.26549527049064636 
vn 0.6408239603042603 0.7568500638008118 -0.12854042649269104 
vn 0.6408239603042603 0.7568500638008118 -0.12854042649269104 
vn 0.6408239603042603 0.7568500638008118 -0.12854042649269104 
vn -0.13319560885429382 0.02222641557455063 0.990840494632721 
vn -0.13319560885429382 0.02222641557455063 0.990840494632721 
vn -0.13319560885429382 0.02222641557455063 0.990840494632721 
vn -0.22020314633846283 -0.018742049112915993 0.9752739667892456 
vn -0.22020314633846283 -0.018742049112915993 0.9752739667892456 
vn -0.22020314633846283 -0.018742049112915993 0.9752739667892456 
vn 0.42202866077423096 -0.5032802224159241 0.7540562748908997 
vn 0.42202866077423096 -0.5032802224159241 0.7540562748908997 
vn 0.42202866077423096 -0.5032802224159241 0.7540562748908997 
vn -0.20287549495697021 -0.5561727285385132 0.8059239983558655 
vn -0.20287549495697021 -0.5561727285385132 0.8059239983558655 
vn -0.20287549495697021 -0.5561727285385132 0.8059239983558655 
vn -0.5232750773429871 0.3969663977622986 0.7540562748908997 
vn -0.5232750773429871 0.3969663977622986 0.7540562748908997 
vn -0.5232750773429871 0.3969663977622986 0.7540562748908997 
vn -0.15023836493492126 0.8906760811805725 0.42909738421440125 
vn -0.15023836493492126 0.8906760811805725 0.42909738421440125 
vn -0.15023836493492126 0.8906760811805725 0.42909738421440125 
s on 
f 1//1 2//2 3//3 
f 2//2 4//4 3//3 
f 5//5 6//6 7//7 
f 8//8 9//9 10//10 
f 11//11 12//12 13//13 
f 14//14 15//15 16//16 
f 17//17 18//18 19//19 
f 20//20 21//21 22//22 
f 23//23 24//24 25//25 
f 26//26 27//27 28//28 
f 29//29 30//30 31//31 
f 32//32 33//33 34//34 
f 35//35 36//36 37//37 
f 38//38 39//39 40//40 
f 41//41 42//42 43//43 

