mtllib model_11.mtl
o model_11
v 432.88116455078125 16687.552734375 830.8296508789062 
v 427.496826171875 16682.998046875 842.5911254882812 
v 433.70953369140625 16685.193359375 825.1548461914062 
v 426.2542724609375 16678.689453125 839.753662109375 
v 427.496826171875 16676.0859375 844.2385864257812 
v 417.5564270019531 16672.18359375 854.2610473632812 
v 418.3847961425781 16669.744140625 858.288330078125 
v 408.0302734375 16663.482421875 872.2465209960938 
v 419.2131652832031 16676.330078125 857.5103149414062 
v 407.6160888671875 16665.759765625 868.4937744140625 
v 409.2728271484375 16669.90625 871.9261474609375 
v 396.8473815917969 16664.376953125 884.5571899414062 
v 395.190673828125 16660.228515625 881.0790405273438 
v 379.865966796875 16656.244140625 890.5523071289062 
v 379.865966796875 16653.88671875 894.3049926757812 
v 395.190673828125 16657.953125 884.6944580078125 
v 362.4703674316406 16651.12109375 901.90185546875 
v 362.8845520019531 16653.642578125 898.0119018554688 
v 344.66058349609375 16649.33203125 908.5377197265625 
v 345.07476806640625 16651.935546875 904.4646606445312 
v 327.2650146484375 16648.76171875 913.7548828125 
v 327.6791687011719 16651.447265625 909.6360473632812 
v 310.69775390625 16649.65625 917.2330322265625 
v 311.526123046875 16652.33984375 912.9768676757812 
v 295.373046875 16651.52734375 918.834716796875 
v 296.6156005859375 16654.2109375 914.4871215820312 
v 281.2908935546875 16654.130859375 918.514404296875 
v 282.5334167480469 16656.8125 914.0752563476562 
v 268.037109375 16656.9765625 916.775390625 
v 269.2796325683594 16659.66015625 912.1531982421875 
v 257.2684020996094 16662.099609375 909.2242431640625 
v 270.5221862792969 16664.05078125 914.8532104492188 
v 258.5109558105469 16666.4921875 911.6039428710938 
v 364.1270751953125 16658.033203125 901.3069458007812 
v 381.522705078125 16660.5546875 893.984619140625 
v 346.31732177734375 16656.40625 907.7140502929688 
v 328.5075378417969 16655.91796875 912.7481079101562 
v 312.7686462402344 16656.732421875 915.9973754882812 
v 298.2723388671875 16658.603515625 917.416015625 
v 284.190185546875 16661.205078125 916.9127197265625 
v -413.704833984375 16681.291015625 833.255126953125 
v -407.9062805175781 16676.0859375 844.2385864257812 
v -414.1190185546875 16685.193359375 825.1548461914062 
v -406.66375732421875 16678.689453125 839.753662109375 
v -407.9062805175781 16682.998046875 842.5911254882812 
v -397.9659423828125 16672.18359375 854.2610473632812 
v -399.6226501464844 16676.330078125 857.5103149414062 
v -388.0256042480469 16665.759765625 868.4937744140625 
v -389.68231201171875 16669.90625 871.9261474609375 
v -377.25689697265625 16664.376953125 884.5571899414062 
v -398.7942810058594 16669.744140625 858.288330078125 
v -388.4397888183594 16663.482421875 872.2465209960938 
v -375.60015869140625 16660.228515625 881.0790405273438 
v -360.27545166015625 16656.244140625 890.5523071289062 
v -361.93218994140625 16660.5546875 893.984619140625 
v -344.5365905761719 16658.033203125 901.3069458007812 
v -375.60015869140625 16657.953125 884.6944580078125 
v -360.27545166015625 16653.88671875 894.3049926757812 
v -342.8798828125 16651.12109375 901.90185546875 
v -343.2940368652344 16653.642578125 898.0119018554688 
v -325.0700988769531 16649.33203125 908.5377197265625 
v -325.4842834472656 16651.935546875 904.4646606445312 
v -307.6744689941406 16648.76171875 913.7548828125 
v -308.0886535644531 16651.447265625 909.6360473632812 
v -291.10723876953125 16649.65625 917.2330322265625 
v -291.93560791015625 16652.33984375 912.9768676757812 
v -275.78253173828125 16651.52734375 918.834716796875 
v -277.02508544921875 16654.2109375 914.4871215820312 
v -261.70037841796875 16654.130859375 918.514404296875 
v -262.94293212890625 16656.8125 914.0752563476562 
v -248.4466094970703 16656.9765625 916.775390625 
v -249.68914794921875 16659.66015625 912.1531982421875 
v -237.67788696289062 16662.099609375 909.2242431640625 
v -250.9316864013672 16664.05078125 914.8532104492188 
v -238.92042541503906 16666.4921875 911.6039428710938 
v -326.726806640625 16656.40625 907.7140502929688 
v -308.9170227050781 16655.91796875 912.7481079101562 
v -293.17816162109375 16656.732421875 915.9973754882812 
v -278.6817932128906 16658.603515625 917.416015625 
v -264.59967041015625 16661.205078125 916.9127197265625 
v -148.2147979736328 16673.6484375 905.6546020507812 
v -161.8827667236328 16672.99609375 903.1832885742188 
v -146.14389038085938 16670.3125 906.6156616210938 
v -164.36785888671875 16668.767578125 903.0001831054688 
v -153.18496704101562 16667.955078125 912.1531982421875 
v -166.43875122070312 16666.328125 910.09375 
v -181.76345825195312 16664.9453125 907.164794921875 
v -180.5209197998047 16667.466796875 900.3001708984375 
v -193.36053466796875 16663.96875 905.7918701171875 
v -192.53216552734375 16666.572265625 899.3848266601562 
v -203.30088806152344 16663.15625 906.1580200195312 
v -202.88670349121094 16665.919921875 900.162841796875 
v -214.4837646484375 16662.42578125 908.171630859375 
v -214.069580078125 16665.109375 902.5884399414062 
v -225.25245666503906 16661.287109375 911.1005249023438 
v -226.08082580566406 16663.96875 905.837646484375 
v -236.4353485107422 16659.416015625 914.1668090820312 
v -226.9091796875 16668.361328125 907.8512573242188 
v -214.4837646484375 16669.58203125 904.2359008789062 
v -202.47251892089844 16670.39453125 901.4442749023438 
v -191.2896270751953 16671.044921875 900.2086181640625 
v -178.45001220703125 16671.77734375 900.666259765625 
v 256.0258483886719 16659.416015625 914.1668090820312 
v 245.6713409423828 16663.96875 905.837646484375 
v 244.84298706054688 16661.287109375 911.1005249023438 
v 233.6600799560547 16665.109375 902.5884399414062 
v 234.0742645263672 16662.42578125 908.171630859375 
v 222.47720336914062 16665.919921875 900.162841796875 
v 222.89137268066406 16663.15625 906.1580200195312 
v 212.1226806640625 16666.572265625 899.3848266601562 
v 212.95103454589844 16663.96875 905.7918701171875 
v 200.11141967773438 16667.466796875 900.3001708984375 
v 201.3539581298828 16664.9453125 907.164794921875 
v 183.95835876464844 16668.767578125 903.0001831054688 
v 186.02926635742188 16666.328125 910.09375 
v 172.7754669189453 16667.955078125 912.1531982421875 
v 246.4997100830078 16668.361328125 907.8512573242188 
v 234.0742645263672 16669.58203125 904.2359008789062 
v 222.06301879882812 16670.39453125 901.4442749023438 
v 210.88014221191406 16671.044921875 900.2086181640625 
v 198.04052734375 16671.77734375 900.666259765625 
v 181.47328186035156 16672.99609375 903.1832885742188 
v 165.73440551757812 16670.3125 906.6156616210938 
v 167.8052978515625 16673.6484375 905.6546020507812 
v 433.29534912109375 16681.291015625 833.255126953125 
v -413.2906494140625 16687.552734375 830.8296508789062 
vn 0.00882389023900032 -0.0038846086245030165 0.002654951997101307 
vn 0.008610806427896023 -0.004362026695162058 0.0026128010358661413 
vn 0.008824941702187061 0.0004524227697402239 0.004681421909481287 
vn 0.00746117252856493 0.0035751655232161283 0.005616858601570129 
vn 0.0012779304524883628 0.008743636310100555 0.004681423306465149 
vn 0.007485860027372837 0.0028048863168805838 0.006007871124893427 
vn 0.0014832797460258007 0.008605255745351315 0.0048733423464000225 
vn 0.0013900091871619225 0.008510849438607693 0.005062934942543507 
vn 0.00806951243430376 -0.0052104187197983265 0.0027810975443571806 
vn 0.006896408274769783 0.002367538632825017 0.00684355990961194 
vn 0.007320477161556482 -0.005803423468023539 0.003568036714568734 
vn 0.006085617002099752 -0.006232411600649357 0.004911447409540415 
vn 0.005659078247845173 0.0020686518400907516 0.007980947382748127 
vn 0.004262116737663746 0.001689107739366591 0.00888714101165533 
vn 0.0011470825411379337 0.008291434496641159 0.005471407901495695 
vn 0.0011841969098895788 0.008404919877648354 0.005287248641252518 
vn 0.0011843187967315316 0.00821301806718111 0.005580655299127102 
vn 0.003436692990362644 0.0016014029970392585 0.009253359399735928 
vn 0.0013334749964997172 0.008190123364329338 0.005580655299127102 
vn 0.0029520168900489807 0.001653745537623763 0.009410139173269272 
vn 0.0015193962026387453 0.008182399906218052 0.005544345360249281 
vn 0.0024002529680728912 0.001818119315430522 0.009535891935229301 
vn 0.0015936510171741247 0.008217296563088894 0.005471407901495695 
vn 0.0016721375286579132 0.0019245278090238571 0.009669546969234943 
vn 0.0014824061654508114 0.008262300863862038 0.0054347822442650795 
vn 0.0006651231087744236 0.002241018693894148 0.009722934104502201 
vn 0.0012216281611472368 0.008376133628189564 0.005324285011738539 
vn -0.00037484068889170885 0.002607072703540325 0.009646899066865444 
vn 0.0008092354401014745 0.008540787734091282 0.00513810059055686 
vn -0.0012258696369826794 0.003020779462531209 0.009453683160245419 
vn -0.0018924507312476635 0.003378249006345868 0.009219873696565628 
vn -0.002546473406255245 -0.004310287535190582 0.008656609803438187 
vn -0.0031254980713129044 -0.003763895481824875 0.008721488527953625 
vn 0.003517378820106387 -0.006318321917206049 0.006907015107572079 
vn 0.004574670922011137 -0.0063927131704986095 0.00618106871843338 
vn 0.002745336852967739 -0.006110493093729019 0.007424621377140284 
vn 0.0018541752360761166 -0.005950258579105139 0.007820259779691696 
vn 0.0007137666107155383 -0.0057341861538589 0.008161473087966442 
vn -0.0005262195481918752 -0.0053908079862594604 0.008406085893511772 
vn -0.0016650392208248377 -0.004880629945546389 0.008567794226109982 
vn -0.0008470458560623229 0.008876673877239227 0.004526275210082531 
vn -0.0012779304524883628 0.008743636310100555 0.004681423306465149 
vn -0.008824941702187061 0.0004524227697402239 0.004681421909481287 
vn -0.007477396167814732 0.0035411084536463022 0.005616858601570129 
vn -0.008610806427896023 -0.004362026695162058 0.0026128010358661413 
vn -0.007485860027372837 0.0028048863168805838 0.006007871124893427 
vn -0.00806951243430376 -0.0052104187197983265 0.0027810975443571806 
vn -0.006896408274769783 0.002367538632825017 0.00684355990961194 
vn -0.007320477161556482 -0.005803423468023539 0.003568036714568734 
vn -0.006058553233742714 -0.006258723326027393 0.004911447409540415 
vn -0.0014460800448432565 0.008611585013568401 0.0048733423464000225 
vn -0.0013900091871619225 0.008510849438607693 0.005062934942543507 
vn -0.005659078247845173 0.0020686518400907516 0.007980947382748127 
vn -0.004248118493705988 0.001724011031910777 0.00888714101165533 
vn -0.0045439573004841805 -0.006414580624550581 0.00618106871843338 
vn -0.0035502491518855095 -0.006299910601228476 0.006907015107572079 
vn -0.0012215328169986606 0.00839957408607006 0.005287248641252518 
vn -0.0011096990201622248 0.008296521380543709 0.005471407901495695 
vn -0.0012216465547680855 0.008207549341022968 0.005580655299127102 
vn -0.00342065398581326 0.0016353827668353915 0.009253359399735928 
vn -0.0013706968165934086 0.008183976635336876 0.005580655299127102 
vn -0.0029334770515561104 0.0016864134231582284 0.009410139173269272 
vn -0.001556473784148693 0.00817542802542448 0.005544345360249281 
vn -0.0024002529680728912 0.001818119315430522 0.009535891935229301 
vn -0.0016306727193295956 0.008210030384361744 0.005471407901495695 
vn -0.0016435713041573763 0.0019489804981276393 0.009669546969234943 
vn -0.0014452571049332619 0.008268879726529121 0.0054347822442650795 
vn -0.0006651231087744236 0.002241018693894148 0.009722934104502201 
vn -0.0011842907406389713 0.00838149432092905 0.005324285011738539 
vn 0.00037484068889170885 0.002607072703540325 0.009646899066865444 
vn -0.0008467542938888073 0.008537149988114834 0.00513810059055686 
vn 0.001260549877770245 0.0030064729508012533 0.009453683160245419 
vn 0.0018595040310174227 0.0033964954782277346 0.009219873696565628 
vn 0.002546473406255245 -0.004310287535190582 0.008656609803438187 
vn 0.0031254980713129044 -0.003763895481824875 0.008721488527953625 
vn -0.002745336852967739 -0.006110493093729019 0.007424621377140284 
vn -0.0018541752360761166 -0.005950258579105139 0.007820259779691696 
vn -0.0007137666107155383 -0.0057341861538589 0.008161473087966442 
vn 0.0005262195481918752 -0.0053908079862594604 0.008406085893511772 
vn 0.0016650392208248377 -0.004880629945546389 0.008567794226109982 
vn -0.001960089197382331 0.0011100390693172812 0.009742990136146545 
vn -0.0018124403432011604 0.000837095663882792 0.009798690676689148 
vn -0.00205095368437469 0.005849069450050592 0.007847419008612633 
vn -0.0018568128580227494 0.006056171376258135 0.0077378954738378525 
vn -0.0014092522906139493 0.009560649283230305 0.0025706023443490267 
vn -0.0013720497954636812 0.00949462503194809 0.002823043614625931 
vn -0.0012221154756844044 0.00936715118587017 0.0032806892413645983 
vn -0.001323900418356061 0.005365221295505762 0.008334368467330933 
vn -0.0007345224730670452 0.009248888120055199 0.0037307576276361942 
vn -0.00020701519679278135 0.004657506011426449 0.008846738375723362 
vn -0.00007543179526692256 0.009123851545155048 0.004092632792890072 
vn 0.0010618577944114804 0.004096288233995438 0.00906051229685545 
vn 0.00028275177464820445 0.00900931004434824 0.004330401308834553 
vn 0.0019060277845710516 0.003778118174523115 0.00906051229685545 
vn 0.000018860428099287674 0.008897114545106888 0.00456519378349185 
vn 0.0021301947999745607 0.0035642972216010094 0.009097144939005375 
vn -0.00043362818541936576 0.0087426183745265 0.004835141357034445 
vn 0.0030637183226644993 -0.003462589578703046 0.008867023512721062 
vn 0.002563673071563244 -0.0032664272002875805 0.0090971440076828 
vn 0.0015984885394573212 -0.002793725114315748 0.00946783646941185 
vn 0.00011247229849686846 -0.0016920954221859574 0.009855159558355808 
vn -0.001174687291495502 -0.0003308142477180809 0.009925254620611668 
vn 0.00039594832924194634 0.008744405582547188 0.004835141357034445 
vn -0.0021623768843710423 0.0035448656417429447 0.009097144939005375 
vn -0.00005658094596583396 0.008896955288946629 0.00456519378349185 
vn -0.0019395760027691722 0.0037610058207064867 0.00906051229685545 
vn -0.00024506152840331197 0.009010414592921734 0.004330401308834553 
vn -0.00102536054328084 0.0041055758483707905 0.00906051229685545 
vn 0.00007543179526692256 0.009123851545155048 0.004092632792890072 
vn 0.00024462240980938077 0.004655682016164064 0.008846738375723362 
vn 0.000772105238866061 0.009245825931429863 0.0037307576276361942 
vn 0.001287307241000235 0.005374118685722351 0.008334368467330933 
vn 0.001259497948922217 0.00936219748109579 0.0032806892413645983 
vn 0.0018568128580227494 0.006056171376258135 0.0077378954738378525 
vn 0.0014093710342422128 0.009489156305789948 0.002823043614625931 
vn 0.0014465529238805175 0.009555076248943806 0.0025706023443490267 
vn -0.0030637183226644993 -0.003462589578703046 0.008867023512721062 
vn -0.002593140583485365 -0.003243083134293556 0.0090971440076828 
vn -0.001631006016395986 -0.0027748665306717157 0.00946783646941185 
vn -0.00011247229849686846 -0.0016920954221859574 0.009855159558355808 
vn 0.0011842295061796904 -0.0002948369365185499 0.009925254620611668 
vn 0.001827866188250482 0.0008028540178202093 0.009798690676689148 
vn 0.002086457796394825 0.005836498457938433 0.007847419008612633 
vn 0.0019782688468694687 0.0010773062240332365 0.009742990136146545 
vn 0.0008845709962770343 0.008873013779520988 0.004526275210082531 
vn -0.008839020505547523 -0.0038500570226460695 0.002654951997101307 
s on 
f 1//1 2//2 3//3 
f 2//2 4//4 3//3 
f 3//3 4//4 5//5 
f 4//4 6//6 5//5 
f 5//5 6//6 7//7 
f 6//6 8//8 7//7 
f 7//7 8//8 8//8 
f 8//8 4//4 8//8 
f 8//8 4//4 4//4 
f 4//4 2//2 4//4 
f 4//4 2//2 6//6 
f 2//2 9//9 6//6 
f 6//6 9//9 10//10 
f 9//9 11//11 10//10 
f 10//10 11//11 12//12 
f 11//11 12//12 12//12 
f 12//12 12//12 12//12 
f 12//12 13//13 12//12 
f 12//12 13//13 10//10 
f 13//13 8//8 10//10 
f 10//10 8//8 6//6 
f 8//8 6//6 6//6 
f 6//6 6//6 12//12 
f 6//6 12//12 12//12 
f 12//12 12//12 12//12 
f 12//12 14//14 12//12 
f 12//12 14//14 13//13 
f 14//14 15//15 13//13 
f 13//13 15//15 16//16 
f 15//15 16//16 16//16 
f 16//16 16//16 15//15 
f 16//16 15//15 15//15 
f 15//15 15//15 15//15 
f 15//15 14//14 15//15 
f 15//15 14//14 17//17 
f 14//14 18//18 17//17 
f 17//17 18//18 19//19 
f 18//18 20//20 19//19 
f 19//19 20//20 21//21 
f 20//20 22//22 21//21 
f 21//21 22//22 23//23 
f 22//22 24//24 23//23 
f 23//23 24//24 25//25 
f 24//24 26//26 25//25 
f 25//25 26//26 27//27 
f 26//26 28//28 27//27 
f 27//27 28//28 29//29 
f 28//28 30//30 29//29 
f 29//29 30//30 31//31 
f 30//30 32//32 31//31 
f 31//31 32//32 33//33 
f 32//32 33//33 33//33 
f 33//33 33//33 20//20 
f 33//33 20//20 20//20 
f 20//20 20//20 20//20 
f 20//20 18//18 20//20 
f 20//20 18//18 34//34 
f 18//18 14//14 34//34 
f 34//34 14//14 35//35 
f 14//14 12//12 35//35 
f 35//35 12//12 12//12 
f 12//12 34//34 12//12 
f 12//12 34//34 34//34 
f 34//34 36//36 34//34 
f 34//34 36//36 20//20 
f 36//36 37//37 20//20 
f 20//20 37//37 22//22 
f 37//37 24//24 22//22 
f 22//22 24//24 24//24 
f 24//24 37//37 24//24 
f 24//24 37//37 37//37 
f 37//37 38//38 37//37 
f 37//37 38//38 24//24 
f 38//38 39//39 24//24 
f 24//24 39//39 26//26 
f 39//39 28//28 26//26 
f 26//26 28//28 28//28 
f 28//28 39//39 28//28 
f 28//28 39//39 39//39 
f 39//39 40//40 39//39 
f 39//39 40//40 28//28 
f 40//40 32//32 28//28 
f 28//28 32//32 30//30 
f 32//32 30//30 30//30 
f 30//30 30//30 41//41 
f 30//30 41//41 41//41 
f 41//41 41//41 41//41 
f 41//41 42//42 41//41 
f 41//41 42//42 43//43 
f 42//42 44//44 43//43 
f 43//43 44//44 45//45 
f 44//44 46//46 45//45 
f 45//45 46//46 47//47 
f 46//46 48//48 47//47 
f 47//47 48//48 49//49 
f 48//48 50//50 49//49 
f 49//49 50//50 50//50 
f 50//50 44//44 50//50 
f 50//50 44//44 44//44 
f 44//44 42//42 44//44 
f 44//44 42//42 46//46 
f 42//42 51//51 46//46 
f 46//46 51//51 52//52 
f 51//51 52//52 52//52 
f 52//52 52//52 46//46 
f 52//52 46//46 46//46 
f 46//46 46//46 46//46 
f 46//46 52//52 46//46 
f 46//46 52//52 48//48 
f 52//52 53//53 48//48 
f 48//48 53//53 50//50 
f 53//53 54//54 50//50 
f 50//50 54//54 55//55 
f 54//54 56//56 55//55 
f 55//55 56//56 56//56 
f 56//56 52//52 56//56 
f 56//56 52//52 52//52 
f 52//52 57//57 52//52 
f 52//52 57//57 53//53 
f 57//57 58//58 53//53 
f 53//53 58//58 54//54 
f 58//58 59//59 54//54 
f 54//54 59//59 60//60 
f 59//59 61//61 60//60 
f 60//60 61//61 62//62 
f 61//61 63//63 62//62 
f 62//62 63//63 64//64 
f 63//63 65//65 64//64 
f 64//64 65//65 66//66 
f 65//65 67//67 66//66 
f 66//66 67//67 68//68 
f 67//67 69//69 68//68 
f 68//68 69//69 70//70 
f 69//69 71//71 70//70 
f 70//70 71//71 72//72 
f 71//71 73//73 72//72 
f 72//72 73//73 74//74 
f 73//73 75//75 74//74 
f 74//74 75//75 75//75 
f 75//75 54//54 75//75 
f 75//75 54//54 54//54 
f 54//54 60//60 54//54 
f 54//54 60//60 56//56 
f 60//60 62//62 56//56 
f 56//56 62//62 76//76 
f 62//62 77//77 76//76 
f 76//76 77//77 77//77 
f 77//77 62//62 77//77 
f 77//77 62//62 62//62 
f 62//62 64//64 62//62 
f 62//62 64//64 77//77 
f 64//64 66//66 77//77 
f 77//77 66//66 78//78 
f 66//66 79//79 78//78 
f 78//78 79//79 79//79 
f 79//79 66//66 79//79 
f 79//79 66//66 66//66 
f 66//66 68//68 66//66 
f 66//66 68//68 79//79 
f 68//68 70//70 79//79 
f 79//79 70//70 80//80 
f 70//70 74//74 80//80 
f 80//80 74//74 74//74 
f 74//74 81//81 74//74 
f 74//74 81//81 81//81 
f 81//81 82//82 81//81 
f 81//81 82//82 83//83 
f 82//82 84//84 83//83 
f 83//83 84//84 85//85 
f 84//84 86//86 85//85 
f 85//85 86//86 86//86 
f 86//86 84//84 86//86 
f 86//86 84//84 87//87 
f 84//84 88//88 87//87 
f 87//87 88//88 89//89 
f 88//88 90//90 89//89 
f 89//89 90//90 91//91 
f 90//90 92//92 91//91 
f 91//91 92//92 93//93 
f 92//92 94//94 93//93 
f 93//93 94//94 95//95 
f 94//94 96//96 95//95 
f 95//95 96//96 97//97 
f 96//96 73//73 97//97 
f 97//97 73//73 71//71 
f 73//73 71//71 71//71 
f 71//71 71//71 73//73 
f 71//71 73//73 73//73 
f 73//73 73//73 73//73 
f 73//73 96//96 73//73 
f 73//73 96//96 98//98 
f 96//96 94//94 98//98 
f 98//98 94//94 99//99 
f 94//94 92//92 99//99 
f 99//99 92//92 100//100 
f 92//92 90//90 100//100 
f 100//100 90//90 101//101 
f 90//90 88//88 101//101 
f 101//101 88//88 102//102 
f 88//88 84//84 102//102 
f 102//102 84//84 82//82 
f 84//84 82//82 82//82 
f 82//82 82//82 29//29 
f 82//82 29//29 29//29 
f 29//29 29//29 29//29 
f 29//29 31//31 29//29 
f 29//29 31//31 103//103 
f 31//31 104//104 103//103 
f 103//103 104//104 105//105 
f 104//104 106//106 105//105 
f 105//105 106//106 107//107 
f 106//106 108//108 107//107 
f 107//107 108//108 109//109 
f 108//108 110//110 109//109 
f 109//109 110//110 111//111 
f 110//110 112//112 111//111 
f 111//111 112//112 113//113 
f 112//112 114//114 113//113 
f 113//113 114//114 115//115 
f 114//114 116//116 115//115 
f 115//115 116//116 116//116 
f 116//116 104//104 116//116 
f 116//116 104//104 104//104 
f 104//104 117//117 104//104 
f 104//104 117//117 106//106 
f 117//117 118//118 106//106 
f 106//106 118//118 108//108 
f 118//118 119//119 108//108 
f 108//108 119//119 110//110 
f 119//119 120//120 110//110 
f 110//110 120//120 112//112 
f 120//120 121//121 112//112 
f 112//112 121//121 114//114 
f 121//121 122//122 114//114 
f 114//114 122//122 123//123 
f 122//122 124//124 123//123 
f 123//123 124//124 124//124 
f 124//124 104//104 124//124 
f 124//124 104//104 104//104 
f 104//104 31//31 104//104 
f 104//104 31//31 117//117 
f 31//31 33//33 117//117 
f 116//116 114//114 123//123 
f 8//8 13//13 16//16 
f 3//3 5//5 125//125 
f 43//43 45//45 126//126 
f 73//73 98//98 75//75 
f 70//70 72//72 74//74 

